<svg xmlns="http://www.w3.org/2000/svg" xmlns:xlink="http://www.w3.org/1999/xlink" version="1.1" width="521" height="159" viewBox="21.3623046875 48.828125 1589.9658203125 485.2294921875" xml:space="preserve" style="">
<desc>Created with Fabric.js 5.3.0</desc>
<defs>
</defs>
<g transform="matrix(2.4129221083885364 0 0 2.4129221083885364 820.418694860479 312.477052298003)" id="background-ff68b0f1-c156-4f42-a526-cea0af8d2435">
<rect style="stroke: none; stroke-width: 0; stroke-dasharray: none; stroke-linecap: butt; stroke-dashoffset: 0; stroke-linejoin: miter; stroke-miterlimit: 4; fill: rgb(25,24,24); fill-rule: nonzero; opacity: 1;" paint-order="stroke" x="-340" y="-129.3658536585366" rx="0" ry="0" width="680" height="258.7317073170732"/>
</g>
<g transform="matrix(0.8045558566289924 0 0 0.8045558566289924 256.2387983943888 64.1427574453405)" id="shape-7cd51334-633b-4a98-b650-d497a9746d5a">
<path style="stroke: none; stroke-width: 0; stroke-dasharray: none; stroke-linecap: butt; stroke-dashoffset: 0; stroke-linejoin: miter; stroke-miterlimit: 4; fill: rgb(255,127,81); fill-rule: nonzero; opacity: 1;" paint-order="stroke" transform=" translate(-318.54999999999995, -89.15)" d="M 318.5 178.3 C 220.2 178.3 140.2 98.30000000000001 140.2 0 L 205.2 0 C 205.2 62.5 256 113.3 318.5 113.3 C 381 113.3 431.9 62.5 431.9 0 L 496.9 0 C 496.9 98.3 416.9 178.3 318.5 178.3 z" stroke-linecap="round"/>
</g>
<g transform="matrix(0.86362534634907 0 0 0.86362534634907 112.74626136460824 170.3234241747742)" id="shape-5fb9a05a-2fd9-431f-9e32-9400089e531b">
<g style="" paint-order="stroke">
		<g transform="matrix(1 0 0 1 -48.30000000000001 -60.599999999999994)" id="shape-5">
<polygon style="stroke: none; stroke-width: 1; stroke-dasharray: none; stroke-linecap: butt; stroke-dashoffset: 0; stroke-linejoin: miter; stroke-miterlimit: 4; fill: rgb(255,255,255); fill-rule: nonzero; opacity: 1;" paint-order="stroke" points="142.5,-144.9 -79.5,-6.300000000000011 -142.5,144.9 -142.5,139.1 -81.1,-7.700000000000017 -80.8,-7.800000000000011 138.7,-144.9 "/>
</g>
		<g transform="matrix(1 0 0 1 -33.85000000000002 -42.599999999999994)" id="shape-5">
<polygon style="stroke: none; stroke-width: 1; stroke-dasharray: none; stroke-linecap: butt; stroke-dashoffset: 0; stroke-linejoin: miter; stroke-miterlimit: 4; fill: rgb(255,255,255); fill-rule: nonzero; opacity: 1;" paint-order="stroke" points="153.15000000000003,-162.9 156.95,-162.9 -83.35,-12.800000000000011 -156.95,162.9 -156.95,157.70000000000002 -84.94999999999999,-14.200000000000017 -84.74999999999999,-14.400000000000006 "/>
</g>
		<g transform="matrix(1 0 0 1 -16.350000000000023 -21.400000000000006)" id="shape-5">
<polygon style="stroke: none; stroke-width: 1; stroke-dasharray: none; stroke-linecap: butt; stroke-dashoffset: 0; stroke-linejoin: miter; stroke-miterlimit: 4; fill: rgb(255,255,255); fill-rule: nonzero; opacity: 1;" paint-order="stroke" points="170.75,-184.1 174.45,-184.1 -89.24999999999999,-19.400000000000006 -174.45,184.1 -174.45,178.9 -90.85,-20.69999999999999 -90.64999999999999,-20.900000000000006 "/>
</g>
		<g transform="matrix(1 0 0 1 0 0)" id="shape-5">
<polygon style="stroke: none; stroke-width: 1; stroke-dasharray: none; stroke-linecap: butt; stroke-dashoffset: 0; stroke-linejoin: miter; stroke-miterlimit: 4; fill: rgb(255,255,255); fill-rule: nonzero; opacity: 1;" paint-order="stroke" points="187,-205.5 190.8,-205.5 -92.9,-28.30000000000001 -190.8,205.5 -190.8,200.39999999999998 -94.50000000000001,-29.69999999999999 -94.30000000000001,-29.900000000000006 "/>
</g>
</g>
</g>
<g transform="matrix(2.4129221083885364 0 0 2.4129221083885364 843.7899966425335 545.0463649535691)" id="tagline-6ebab44d-dffa-4c75-a6c3-77ab2dfb0c49-logo">
<g style="" paint-order="stroke">
		<g transform="matrix(1 0 0 1 0 0)" id="tagline-6ebab44d-dffa-4c75-a6c3-77ab2dfb0c49-logo-path-0">
<path style="stroke: none; stroke-width: 0; stroke-dasharray: none; stroke-linecap: butt; stroke-dashoffset: 0; stroke-linejoin: miter; stroke-miterlimit: 4; fill: rgb(25,24,24); fill-rule: nonzero; opacity: 1;" paint-order="stroke" transform=" translate(-33.265, 4.55)" d="M 3.38 0.13 C 5.51 0.13 6.68 -1.22 6.68 -3.47 L 6.68 -9.11 L 4.6 -9.11 L 4.6 -3.45 C 4.6 -2.33 4.28 -1.95 3.35 -1.95 C 2.89 -1.95 2.46 -2.24 2.21 -2.67 L 0.39 -1.66 C 0.99 -0.34 1.83 0.13 3.38 0.13 Z M 12.79 0.13 C 15.52 0.13 17.47 -1.72 17.47 -4.55 C 17.47 -7.25 15.61 -9.23 12.79 -9.23 C 10.08 -9.23 8.11 -7.38 8.11 -4.55 C 8.11 -1.83 9.96 0.13 12.79 0.13 Z M 12.79 -1.95 C 11.3 -1.95 10.19 -2.99 10.19 -4.55 C 10.19 -6.06 11.23 -7.15 12.79 -7.15 C 14.3 -7.15 15.39 -6.11 15.39 -4.55 C 15.39 -3.06 14.35 -1.95 12.79 -1.95 Z M 18.9 0 L 20.98 0 L 20.98 -9.1 L 18.9 -9.1 Z M 28.02 0 L 29.85 0 L 29.85 -9.1 L 27.77 -9.1 L 27.77 -4 L 24.63 -9.1 L 22.41 -9.1 L 22.41 0 L 24.49 0 L 24.49 -5.72 Z M 40.13 0 L 41.96 0 L 41.96 -9.1 L 39.88 -9.1 L 39.88 -4 L 36.75 -9.1 L 34.53 -9.1 L 34.53 0 L 36.61 0 L 36.61 -5.72 Z M 48.07 0.13 C 50.8 0.13 52.75 -1.72 52.75 -4.55 C 52.75 -7.25 50.89 -9.23 48.07 -9.23 C 45.36 -9.23 43.39 -7.38 43.39 -4.55 C 43.39 -1.83 45.24 0.13 48.07 0.13 Z M 48.07 -1.95 C 46.58 -1.95 45.47 -2.99 45.47 -4.55 C 45.47 -6.06 46.51 -7.15 48.07 -7.15 C 49.58 -7.15 50.67 -6.11 50.67 -4.55 C 50.67 -3.06 49.63 -1.95 48.07 -1.95 Z M 61.32 0 L 63.66 0 L 66.14 -9.1 L 63.8 -9.1 L 62.43 -3.43 L 60.8 -9.1 L 58.62 -9.1 L 56.99 -3.43 L 55.61 -9.1 L 53.27 -9.1 L 55.76 0 L 58.1 0 L 59.71 -5.97 Z" stroke-linecap="round"/>
</g>
</g>
</g>
<g transform="matrix(0.9010171938400615 0 0 0.9010171938400613 1496.219953397775 547.5299116242833)" id="shape-e723ca57-5c9e-44b8-954e-69e4b3cf2185">
<path style="stroke: none; stroke-width: 0; stroke-dasharray: none; stroke-linecap: butt; stroke-dashoffset: 0; stroke-linejoin: miter; stroke-miterlimit: 4; fill: rgb(255,127,81); fill-rule: nonzero; opacity: 1;" paint-order="stroke" transform=" translate(-177.95000000000002, -410.85)" d="M 356.3 500 L 291.3 500 C 291.3 437.5 240.5 386.7 178 386.7 C 115.5 386.7 64.6 437.5 64.6 500 L -0.4000000000000057 500 C -0.4000000000000057 401.7 79.6 321.7 177.9 321.7 C 276.20000000000005 321.7 356.3 401.7 356.3 500 z" stroke-linecap="round"/>
</g>
<g transform="matrix(0.9010171938400615 0 0 0.9010171938400613 1496.219953397776 592.1302627193661)" id="shape-66d58e3f-e2bf-4455-a2e0-0b3b0258036f">
<path style="stroke: none; stroke-width: 0; stroke-dasharray: none; stroke-linecap: butt; stroke-dashoffset: 0; stroke-linejoin: miter; stroke-miterlimit: 4; fill: rgb(88,241,173); fill-rule: nonzero; opacity: 1;" paint-order="stroke" transform=" translate(-178, -460.35)" d="M 90.3 504.2 C 90.3 455.8 129.6 416.5 178 416.5 C 226.4 416.5 265.7 455.8 265.7 504.2 L 90.3 504.2 z" stroke-linecap="round"/>
</g>
<g transform="matrix(1.1568320331055246 0 0 1.1568320331055246 51.50376070365269 49.501765980665766)" id="shape-19de7e9c-8b41-443a-a760-19d2421442c9">
<path style="stroke: none; stroke-width: 0; stroke-dasharray: none; stroke-linecap: butt; stroke-dashoffset: 0; stroke-linejoin: miter; stroke-miterlimit: 4; fill: rgb(206,66,87); fill-rule: nonzero; opacity: 1;" paint-order="stroke" transform=" translate(-43.85, -43.85)" d="M 0 87.7 C 48.4 87.7 87.7 48.400000000000006 87.7 0 L 0 0 L 0 87.7 z" stroke-linecap="round"/>
</g>
<g transform="matrix(0.9010171938400615 0 0 0.9010171938400613 1614.7487652474358 410.4332422256957)" id="shape-99d735bb-c15a-459f-96b3-3faf9147b4f9">
<path style="stroke: none; stroke-width: 0; stroke-dasharray: none; stroke-linecap: butt; stroke-dashoffset: 0; stroke-linejoin: miter; stroke-miterlimit: 4; fill: rgb(206,66,87); fill-rule: nonzero; opacity: 1;" paint-order="stroke" transform=" translate(-456.15, -258.8)" d="M 500 346.5 C 451.6 346.5 412.3 307.2 412.3 258.8 C 412.3 210.40000000000003 451.6 171.10000000000002 500 171.10000000000002 L 500 346.5 z" stroke-linecap="round"/>
</g>
<g transform="matrix(0.8045558566289924 0 0 0.8045558566289924 269.83879794574204 44.02642011101756)" id="shape-2842028f-83fd-4f35-a109-c72aa3e526ce">
<path style="stroke: none; stroke-width: 0; stroke-dasharray: none; stroke-linecap: butt; stroke-dashoffset: 0; stroke-linejoin: miter; stroke-miterlimit: 4; fill: rgb(88,241,173); fill-rule: nonzero; opacity: 1;" paint-order="stroke" transform=" translate(-348.95000000000005, -43.85)" d="M 305.1 87.7 C 353.5 87.7 392.8 48.400000000000006 392.8 0 L 305.1 0 L 305.1 87.7 L 305.1 87.7 z" stroke-linecap="round"/>
</g>
<g transform="matrix(1.4652017318074841 0 0 1.4652017318074841 1475.7398113577428 67.15969868719924)" id="shape-b002ec68-8f5e-4030-bf1b-7fb8f56fff73">
<polygon style="stroke: none; stroke-width: 0; stroke-dasharray: none; stroke-linecap: butt; stroke-dashoffset: 0; stroke-linejoin: miter; stroke-miterlimit: 4; fill: rgb(0,48,73); fill-rule: nonzero; opacity: 1;" paint-order="stroke" points="164.1,0.29999999999999716 -185.5,50.7 -164.1,-0.20000000000000284 185.5,-50.7 "/>
</g>
<g transform="matrix(1.074773699245793 0 0 1.074773699245793 190.9342922388555 563.8162982111666)" id="shape-0393a28d-40ea-44fe-b288-8a0a0c238172">
<polygon style="stroke: none; stroke-width: 0; stroke-dasharray: none; stroke-linecap: butt; stroke-dashoffset: 0; stroke-linejoin: miter; stroke-miterlimit: 4; fill: rgb(0,48,73); fill-rule: nonzero; opacity: 1;" paint-order="stroke" points="189.25000000000006,0.25 -213.95,58.44999999999999 -189.34999999999997,-0.25 213.95,-58.450000000000045 "/>
</g>
<g transform="matrix(1.074773699245793 0 0 1.074773699245793 123.92215209088067 585.708655277344)" id="shape-eea344e2-88d8-4623-b257-4d188001c7fb">
<g style="" paint-order="stroke">
		<g transform="matrix(1 0 0 1 -110.30000000000001 15.899999999999977)" id="shape-6">
<polygon style="stroke: none; stroke-width: 1; stroke-dasharray: none; stroke-linecap: butt; stroke-dashoffset: 0; stroke-linejoin: miter; stroke-miterlimit: 4; fill: rgb(255,255,255); fill-rule: nonzero; opacity: 1;" paint-order="stroke" points="8.699999999999989,-16.399999999999977 -6,16.000000000000057 -8.699999999999989,16.400000000000034 6.099999999999966,-15.999999999999943 "/>
</g>
		<g transform="matrix(1 0 0 1 -90.20000000000007 13)" id="shape-6">
<polygon style="stroke: none; stroke-width: 1; stroke-dasharray: none; stroke-linecap: butt; stroke-dashoffset: 0; stroke-linejoin: miter; stroke-miterlimit: 4; fill: rgb(255,255,255); fill-rule: nonzero; opacity: 1;" paint-order="stroke" points="8.700000000000045,-16.399999999999977 -6.099999999999966,16.100000000000023 -8.699999999999989,16.400000000000034 6,-16 "/>
</g>
		<g transform="matrix(1 0 0 1 -70.20000000000007 10.099999999999994)" id="shape-6">
<polygon style="stroke: none; stroke-width: 1; stroke-dasharray: none; stroke-linecap: butt; stroke-dashoffset: 0; stroke-linejoin: miter; stroke-miterlimit: 4; fill: rgb(255,255,255); fill-rule: nonzero; opacity: 1;" paint-order="stroke" points="8.700000000000045,-16.399999999999977 -6,16.100000000000023 -8.699999999999989,16.399999999999977 6.100000000000023,-16 "/>
</g>
		<g transform="matrix(1 0 0 1 -50.10000000000002 7.2000000000000455)" id="shape-6">
<polygon style="stroke: none; stroke-width: 1; stroke-dasharray: none; stroke-linecap: butt; stroke-dashoffset: 0; stroke-linejoin: miter; stroke-miterlimit: 4; fill: rgb(255,255,255); fill-rule: nonzero; opacity: 1;" paint-order="stroke" points="8.699999999999989,-16.400000000000034 -6.100000000000023,16.099999999999966 -8.699999999999989,16.399999999999977 6,-16 "/>
</g>
		<g transform="matrix(1 0 0 1 -30.100000000000023 4.349999999999994)" id="shape-6">
<polygon style="stroke: none; stroke-width: 1; stroke-dasharray: none; stroke-linecap: butt; stroke-dashoffset: 0; stroke-linejoin: miter; stroke-miterlimit: 4; fill: rgb(255,255,255); fill-rule: nonzero; opacity: 1;" paint-order="stroke" points="8.699999999999989,-16.44999999999999 -6,16.05000000000001 -8.699999999999989,16.44999999999999 6.100000000000023,-16.05000000000001 "/>
</g>
		<g transform="matrix(1 0 0 1 -10.000000000000028 1.4499999999999886)" id="shape-6">
<polygon style="stroke: none; stroke-width: 1; stroke-dasharray: none; stroke-linecap: butt; stroke-dashoffset: 0; stroke-linejoin: miter; stroke-miterlimit: 4; fill: rgb(255,255,255); fill-rule: nonzero; opacity: 1;" paint-order="stroke" points="8.699999999999989,-16.450000000000045 -6.100000000000023,16.049999999999955 -8.700000000000045,16.44999999999999 6,-16.05000000000001 "/>
</g>
		<g transform="matrix(1 0 0 1 9.999999999999972 -1.450000000000017)" id="shape-6">
<polygon style="stroke: none; stroke-width: 1; stroke-dasharray: none; stroke-linecap: butt; stroke-dashoffset: 0; stroke-linejoin: miter; stroke-miterlimit: 4; fill: rgb(255,255,255); fill-rule: nonzero; opacity: 1;" paint-order="stroke" points="8.699999999999989,-16.44999999999999 -6,16.05000000000001 -8.700000000000045,16.44999999999999 6.099999999999966,-16.05000000000001 "/>
</g>
		<g transform="matrix(1 0 0 1 30.099999999999966 -4.349999999999994)" id="shape-6">
<polygon style="stroke: none; stroke-width: 1; stroke-dasharray: none; stroke-linecap: butt; stroke-dashoffset: 0; stroke-linejoin: miter; stroke-miterlimit: 4; fill: rgb(255,255,255); fill-rule: nonzero; opacity: 1;" paint-order="stroke" points="8.699999999999989,-16.44999999999999 -6.099999999999966,16.05000000000001 -8.699999999999989,16.44999999999999 6,-16.05000000000001 "/>
</g>
		<g transform="matrix(1 0 0 1 50.099999999999966 -7.250000000000057)" id="shape-6">
<polygon style="stroke: none; stroke-width: 1; stroke-dasharray: none; stroke-linecap: butt; stroke-dashoffset: 0; stroke-linejoin: miter; stroke-miterlimit: 4; fill: rgb(255,255,255); fill-rule: nonzero; opacity: 1;" paint-order="stroke" points="8.699999999999989,-16.44999999999999 -6,16.05000000000001 -8.699999999999989,16.450000000000045 6.100000000000023,-16.049999999999955 "/>
</g>
		<g transform="matrix(1 0 0 1 70.19999999999999 -10.150000000000006)" id="shape-6">
<polygon style="stroke: none; stroke-width: 1; stroke-dasharray: none; stroke-linecap: butt; stroke-dashoffset: 0; stroke-linejoin: miter; stroke-miterlimit: 4; fill: rgb(255,255,255); fill-rule: nonzero; opacity: 1;" paint-order="stroke" points="8.699999999999989,-16.44999999999999 -6.100000000000023,16.05000000000001 -8.699999999999989,16.44999999999999 6,-16.05000000000001 "/>
</g>
		<g transform="matrix(1 0 0 1 90.19999999999987 -13.050000000000011)" id="shape-6">
<polygon style="stroke: none; stroke-width: 1; stroke-dasharray: none; stroke-linecap: butt; stroke-dashoffset: 0; stroke-linejoin: miter; stroke-miterlimit: 4; fill: rgb(255,255,255); fill-rule: nonzero; opacity: 1;" paint-order="stroke" points="8.700000000000045,-16.450000000000045 -6,16.049999999999955 -8.699999999999932,16.44999999999999 6.100000000000023,-16.05000000000001 "/>
</g>
		<g transform="matrix(1 0 0 1 110.30000000000001 -15.900000000000006)" id="shape-6">
<polygon style="stroke: none; stroke-width: 1; stroke-dasharray: none; stroke-linecap: butt; stroke-dashoffset: 0; stroke-linejoin: miter; stroke-miterlimit: 4; fill: rgb(255,255,255); fill-rule: nonzero; opacity: 1;" paint-order="stroke" points="8.699999999999932,-16.399999999999977 -6.100000000000136,16 -8.700000000000045,16.399999999999977 5.999999999999886,-16.100000000000023 "/>
</g>
</g>
</g>
<g transform="matrix(1.4652017318074841 0 0 1.4652017318074841 1552.8094224508172 65.91427721516257)" id="shape-d6357139-4082-4f49-805b-18d0dbbca3f7">
<g style="" paint-order="stroke">
		<g transform="matrix(1 0 0 1 -99.84999999999998 14.399999999999999)" id="shape-1_00000142886747710718468020000002826075877477774468_">
<polygon style="stroke: none; stroke-width: 1; stroke-dasharray: none; stroke-linecap: butt; stroke-dashoffset: 0; stroke-linejoin: miter; stroke-miterlimit: 4; fill: rgb(255,255,255); fill-rule: nonzero; opacity: 1;" paint-order="stroke" points="7.550000000000001,-14.25 -5.25,13.950000000000003 -7.550000000000001,14.25 5.25,-13.849999999999994 "/>
</g>
		<g transform="matrix(1 0 0 1 -82.44999999999997 11.899999999999999)" id="shape-1_00000142886747710718468020000002826075877477774468_">
<polygon style="stroke: none; stroke-width: 1; stroke-dasharray: none; stroke-linecap: butt; stroke-dashoffset: 0; stroke-linejoin: miter; stroke-miterlimit: 4; fill: rgb(255,255,255); fill-rule: nonzero; opacity: 1;" paint-order="stroke" points="7.549999999999997,-14.25 -5.250000000000007,13.950000000000003 -7.550000000000004,14.25 5.249999999999993,-13.849999999999994 "/>
</g>
		<g transform="matrix(1 0 0 1 -65.14999999999998 9.399999999999999)" id="shape-1_00000142886747710718468020000002826075877477774468_">
<polygon style="stroke: none; stroke-width: 1; stroke-dasharray: none; stroke-linecap: butt; stroke-dashoffset: 0; stroke-linejoin: miter; stroke-miterlimit: 4; fill: rgb(255,255,255); fill-rule: nonzero; opacity: 1;" paint-order="stroke" points="7.549999999999997,-14.25 -5.25,13.950000000000003 -7.550000000000004,14.25 5.25,-13.849999999999994 "/>
</g>
		<g transform="matrix(1 0 0 1 -47.74999999999999 6.899999999999999)" id="shape-1_00000142886747710718468020000002826075877477774468_">
<polygon style="stroke: none; stroke-width: 1; stroke-dasharray: none; stroke-linecap: butt; stroke-dashoffset: 0; stroke-linejoin: miter; stroke-miterlimit: 4; fill: rgb(255,255,255); fill-rule: nonzero; opacity: 1;" paint-order="stroke" points="7.550000000000011,-14.25 -5.25,13.950000000000003 -7.549999999999997,14.25 5.25,-13.849999999999994 "/>
</g>
		<g transform="matrix(1 0 0 1 -30.34999999999998 4.399999999999999)" id="shape-1_00000142886747710718468020000002826075877477774468_">
<polygon style="stroke: none; stroke-width: 1; stroke-dasharray: none; stroke-linecap: butt; stroke-dashoffset: 0; stroke-linejoin: miter; stroke-miterlimit: 4; fill: rgb(255,255,255); fill-rule: nonzero; opacity: 1;" paint-order="stroke" points="7.549999999999997,-14.25 -5.25,13.950000000000003 -7.549999999999997,14.25 5.25,-13.950000000000003 "/>
</g>
		<g transform="matrix(1 0 0 1 -12.949999999999982 1.8999999999999986)" id="shape-1_00000142886747710718468020000002826075877477774468_">
<polygon style="stroke: none; stroke-width: 1; stroke-dasharray: none; stroke-linecap: butt; stroke-dashoffset: 0; stroke-linejoin: miter; stroke-miterlimit: 4; fill: rgb(255,255,255); fill-rule: nonzero; opacity: 1;" paint-order="stroke" points="7.549999999999997,-14.25 -5.25,13.950000000000003 -7.550000000000011,14.25 5.25,-13.949999999999996 "/>
</g>
		<g transform="matrix(1 0 0 1 4.450000000000031 -0.6000000000000014)" id="shape-1_00000142886747710718468020000002826075877477774468_">
<polygon style="stroke: none; stroke-width: 1; stroke-dasharray: none; stroke-linecap: butt; stroke-dashoffset: 0; stroke-linejoin: miter; stroke-miterlimit: 4; fill: rgb(255,255,255); fill-rule: nonzero; opacity: 1;" paint-order="stroke" points="7.549999999999983,-14.25 -5.250000000000014,13.850000000000009 -7.550000000000011,14.25 5.25,-13.949999999999996 "/>
</g>
		<g transform="matrix(1 0 0 1 21.75000000000003 -3.1000000000000014)" id="shape-1_00000142886747710718468020000002826075877477774468_">
<polygon style="stroke: none; stroke-width: 1; stroke-dasharray: none; stroke-linecap: butt; stroke-dashoffset: 0; stroke-linejoin: miter; stroke-miterlimit: 4; fill: rgb(255,255,255); fill-rule: nonzero; opacity: 1;" paint-order="stroke" points="7.549999999999983,-14.25 -5.250000000000028,13.850000000000009 -7.550000000000011,14.25 5.249999999999972,-13.949999999999996 "/>
</g>
		<g transform="matrix(1 0 0 1 39.15000000000002 -5.600000000000001)" id="shape-1_00000142886747710718468020000002826075877477774468_">
<polygon style="stroke: none; stroke-width: 1; stroke-dasharray: none; stroke-linecap: butt; stroke-dashoffset: 0; stroke-linejoin: miter; stroke-miterlimit: 4; fill: rgb(255,255,255); fill-rule: nonzero; opacity: 1;" paint-order="stroke" points="7.550000000000011,-14.25 -5.25,13.850000000000009 -7.550000000000011,14.25 5.25,-13.949999999999996 "/>
</g>
		<g transform="matrix(1 0 0 1 56.54999999999998 -8.100000000000001)" id="shape-1_00000142886747710718468020000002826075877477774468_">
<polygon style="stroke: none; stroke-width: 1; stroke-dasharray: none; stroke-linecap: butt; stroke-dashoffset: 0; stroke-linejoin: miter; stroke-miterlimit: 4; fill: rgb(255,255,255); fill-rule: nonzero; opacity: 1;" paint-order="stroke" points="7.550000000000011,-14.25 -5.249999999999972,13.850000000000009 -7.549999999999983,14.25 5.250000000000028,-13.949999999999996 "/>
</g>
		<g transform="matrix(1 0 0 1 73.95000000000002 -10.649999999999999)" id="shape-1_00000142886747710718468020000002826075877477774468_">
<polygon style="stroke: none; stroke-width: 1; stroke-dasharray: none; stroke-linecap: butt; stroke-dashoffset: 0; stroke-linejoin: miter; stroke-miterlimit: 4; fill: rgb(255,255,255); fill-rule: nonzero; opacity: 1;" paint-order="stroke" points="7.549999999999983,-14.200000000000003 -5.25,13.900000000000006 -7.550000000000011,14.200000000000003 5.25,-13.899999999999999 "/>
</g>
		<g transform="matrix(1 0 0 1 91.35 -13.149999999999999)" id="shape-1_00000142886747710718468020000002826075877477774468_">
<polygon style="stroke: none; stroke-width: 1; stroke-dasharray: none; stroke-linecap: butt; stroke-dashoffset: 0; stroke-linejoin: miter; stroke-miterlimit: 4; fill: rgb(255,255,255); fill-rule: nonzero; opacity: 1;" paint-order="stroke" points="7.550000000000011,-14.200000000000003 -5.25,13.900000000000006 -7.549999999999983,14.200000000000003 5.25,-13.899999999999999 "/>
</g>
		<g transform="matrix(1 0 0 1 -92.34999999999998 13.199999999999996)" id="shape-1_00000142886747710718468020000002826075877477774468_">
<polygon style="stroke: none; stroke-width: 1; stroke-dasharray: none; stroke-linecap: butt; stroke-dashoffset: 0; stroke-linejoin: miter; stroke-miterlimit: 4; fill: rgb(255,255,255); fill-rule: nonzero; opacity: 1;" paint-order="stroke" points="7.549999999999997,-14.25 -5.25,13.850000000000009 -7.550000000000001,14.25 5.25,-13.949999999999989 "/>
</g>
		<g transform="matrix(1 0 0 1 -74.44999999999997 10.699999999999996)" id="shape-1_00000142886747710718468020000002826075877477774468_">
<polygon style="stroke: none; stroke-width: 1; stroke-dasharray: none; stroke-linecap: butt; stroke-dashoffset: 0; stroke-linejoin: miter; stroke-miterlimit: 4; fill: rgb(255,255,255); fill-rule: nonzero; opacity: 1;" paint-order="stroke" points="7.549999999999997,-14.25 -5.250000000000007,13.850000000000009 -7.550000000000004,14.25 5.249999999999993,-13.949999999999989 "/>
</g>
		<g transform="matrix(1 0 0 1 -56.54999999999998 8.199999999999996)" id="shape-1_00000142886747710718468020000002826075877477774468_">
<polygon style="stroke: none; stroke-width: 1; stroke-dasharray: none; stroke-linecap: butt; stroke-dashoffset: 0; stroke-linejoin: miter; stroke-miterlimit: 4; fill: rgb(255,255,255); fill-rule: nonzero; opacity: 1;" paint-order="stroke" points="7.549999999999997,-14.25 -5.25,13.850000000000009 -7.549999999999997,14.25 5.25,-13.949999999999989 "/>
</g>
		<g transform="matrix(1 0 0 1 -39.14999999999998 5.649999999999999)" id="shape-1_00000142886747710718468020000002826075877477774468_">
<polygon style="stroke: none; stroke-width: 1; stroke-dasharray: none; stroke-linecap: butt; stroke-dashoffset: 0; stroke-linejoin: miter; stroke-miterlimit: 4; fill: rgb(255,255,255); fill-rule: nonzero; opacity: 1;" paint-order="stroke" points="7.549999999999997,-14.200000000000003 -5.25,13.900000000000006 -7.549999999999997,14.200000000000003 5.25,-13.899999999999991 "/>
</g>
		<g transform="matrix(1 0 0 1 -21.749999999999993 3.149999999999995)" id="shape-1_00000142886747710718468020000002826075877477774468_">
<polygon style="stroke: none; stroke-width: 1; stroke-dasharray: none; stroke-linecap: butt; stroke-dashoffset: 0; stroke-linejoin: miter; stroke-miterlimit: 4; fill: rgb(255,255,255); fill-rule: nonzero; opacity: 1;" paint-order="stroke" points="7.550000000000011,-14.199999999999996 -5.25,13.900000000000006 -7.549999999999997,14.200000000000003 5.150000000000006,-13.899999999999999 "/>
</g>
		<g transform="matrix(1 0 0 1 -4.4499999999999815 0.6000000000000014)" id="shape-1_00000142886747710718468020000002826075877477774468_">
<polygon style="stroke: none; stroke-width: 1; stroke-dasharray: none; stroke-linecap: butt; stroke-dashoffset: 0; stroke-linejoin: miter; stroke-miterlimit: 4; fill: rgb(255,255,255); fill-rule: nonzero; opacity: 1;" paint-order="stroke" points="7.549999999999997,-14.25 -5.25,13.950000000000003 -7.550000000000011,14.25 5.25,-13.850000000000001 "/>
</g>
		<g transform="matrix(1 0 0 1 12.950000000000017 -1.8999999999999986)" id="shape-1_00000142886747710718468020000002826075877477774468_">
<polygon style="stroke: none; stroke-width: 1; stroke-dasharray: none; stroke-linecap: butt; stroke-dashoffset: 0; stroke-linejoin: miter; stroke-miterlimit: 4; fill: rgb(255,255,255); fill-rule: nonzero; opacity: 1;" paint-order="stroke" points="7.549999999999983,-14.25 -5.25,13.950000000000003 -7.550000000000011,14.25 5.25,-13.850000000000001 "/>
</g>
		<g transform="matrix(1 0 0 1 30.349999999999994 -4.399999999999999)" id="shape-1_00000142886747710718468020000002826075877477774468_">
<polygon style="stroke: none; stroke-width: 1; stroke-dasharray: none; stroke-linecap: butt; stroke-dashoffset: 0; stroke-linejoin: miter; stroke-miterlimit: 4; fill: rgb(255,255,255); fill-rule: nonzero; opacity: 1;" paint-order="stroke" points="7.550000000000011,-14.25 -5.25,13.950000000000003 -7.549999999999983,14.25 5.25,-13.850000000000001 "/>
</g>
		<g transform="matrix(1 0 0 1 47.75000000000003 -6.899999999999999)" id="shape-1_00000142886747710718468020000002826075877477774468_">
<polygon style="stroke: none; stroke-width: 1; stroke-dasharray: none; stroke-linecap: butt; stroke-dashoffset: 0; stroke-linejoin: miter; stroke-miterlimit: 4; fill: rgb(255,255,255); fill-rule: nonzero; opacity: 1;" paint-order="stroke" points="7.549999999999983,-14.25 -5.250000000000028,13.950000000000003 -7.550000000000011,14.25 5.249999999999972,-13.850000000000001 "/>
</g>
		<g transform="matrix(1 0 0 1 65.15000000000002 -9.399999999999999)" id="shape-1_00000142886747710718468020000002826075877477774468_">
<polygon style="stroke: none; stroke-width: 1; stroke-dasharray: none; stroke-linecap: butt; stroke-dashoffset: 0; stroke-linejoin: miter; stroke-miterlimit: 4; fill: rgb(255,255,255); fill-rule: nonzero; opacity: 1;" paint-order="stroke" points="7.550000000000011,-14.25 -5.25,13.950000000000003 -7.550000000000011,14.25 5.25,-13.950000000000003 "/>
</g>
		<g transform="matrix(1 0 0 1 82.45000000000002 -11.899999999999999)" id="shape-1_00000142886747710718468020000002826075877477774468_">
<polygon style="stroke: none; stroke-width: 1; stroke-dasharray: none; stroke-linecap: butt; stroke-dashoffset: 0; stroke-linejoin: miter; stroke-miterlimit: 4; fill: rgb(255,255,255); fill-rule: nonzero; opacity: 1;" paint-order="stroke" points="7.549999999999983,-14.25 -5.25,13.950000000000003 -7.550000000000011,14.25 5.25,-13.950000000000003 "/>
</g>
		<g transform="matrix(1 0 0 1 99.85 -14.399999999999999)" id="shape-1_00000142886747710718468020000002826075877477774468_">
<polygon style="stroke: none; stroke-width: 1; stroke-dasharray: none; stroke-linecap: butt; stroke-dashoffset: 0; stroke-linejoin: miter; stroke-miterlimit: 4; fill: rgb(255,255,255); fill-rule: nonzero; opacity: 1;" paint-order="stroke" points="7.550000000000011,-14.25 -5.25,13.950000000000003 -7.549999999999983,14.25 5.25,-13.950000000000003 "/>
</g>
</g>
</g>
<g transform="matrix(1.4652017318074841 0 0 1.4652017318074841 1517.6445808874378 112.94725280618289)" id="shape-fac078d2-f9bc-48b0-a9a9-b8f7b2702c1e">
<polygon style="stroke: none; stroke-width: 0; stroke-dasharray: none; stroke-linecap: butt; stroke-dashoffset: 0; stroke-linejoin: miter; stroke-miterlimit: 4; fill: rgb(206,66,87); fill-rule: nonzero; opacity: 1;" paint-order="stroke" points="130.89999999999998,-14.75 -134.3,23.849999999999994 -130.9,14.849999999999994 134.3,-23.849999999999994 "/>
</g>
<g transform="matrix(1.074773699245793 0 0 1.074773699245793 162.23783446899313 517.2866049182082)" id="shape-57aad93c-5fda-4989-8f1b-ac32449e2d99">
<polygon style="stroke: none; stroke-width: 0; stroke-dasharray: none; stroke-linecap: butt; stroke-dashoffset: 0; stroke-linejoin: miter; stroke-miterlimit: 4; fill: rgb(206,66,87); fill-rule: nonzero; opacity: 1;" paint-order="stroke" points="151.14999999999998,-15.949999999999932 -155.14999999999998,26.350000000000023 -151.14999999999998,15.850000000000023 155.14999999999998,-26.349999999999966 "/>
</g>
<g transform="matrix(2.4129221083885364 0 0 2.4129221083885364 819.7544382571772 106.12860271378403)" id="tagline-da75ab48-b8a5-4790-b47a-d7829ac2f15f-logo">
<g style="" paint-order="stroke">
		<g transform="matrix(1 0 0 1 0 0)" id="tagline-da75ab48-b8a5-4790-b47a-d7829ac2f15f-logo-path-0">
<path style="stroke: none; stroke-width: 0; stroke-dasharray: none; stroke-linecap: butt; stroke-dashoffset: 0; stroke-linejoin: miter; stroke-miterlimit: 4; fill: rgb(217,217,216); fill-rule: nonzero; opacity: 1;" paint-order="stroke" transform=" translate(-58.184999999999995, 9.830597372397182)" d="M 8.74 -9.94 L 8.74 -3.39 C 8.74 -1.37 10.08 0.28 12.04 0.28 C 13.33 0.28 14.2 -0.36 14.81 -1.4 L 14.39 -1.96 C 14.14 -1.71 13.86 -1.6 13.58 -1.6 C 13.08 -1.6 12.66 -2.02 12.66 -2.97 L 12.66 -8.99 C 12.66 -12.94 9.3 -14.25 6.44 -14.25 C 3.14 -14.25 1.51 -12.68 1.51 -10.7 C 1.51 -9.21 2.52 -8.2 3.81 -8.2 C 5.1 -8.2 6.13 -9.21 6.13 -10.5 C 6.13 -11.09 5.94 -11.56 5.57 -12.1 C 5.38 -12.49 5.52 -13.13 6.52 -13.13 C 7.92 -13.13 8.74 -11.62 8.74 -9.94 Z M 4.98 0.28 C 7.48 0.28 9.02 -1.06 10.58 -3.14 L 8.74 -4.06 C 8.74 -2.27 8.04 -1.4 6.72 -1.4 C 5.52 -1.4 4.96 -2.52 4.96 -4.06 C 4.96 -5.71 5.49 -6.92 7.17 -7.17 L 9.52 -7.5 L 9.52 -8.57 L 6.83 -8.23 C 2.83 -7.81 0.9 -6.24 0.9 -3.61 C 0.9 -1.06 2.63 0.28 4.98 0.28 Z M 16.27 -12.68 L 20.83 0 L 23.13 0 L 23.77 -2.66 L 20.19 -12.68 C 19.94 -13.41 20.24 -13.72 20.72 -13.72 C 20.78 -13.72 20.86 -13.75 20.86 -13.86 C 20.86 -13.97 20.78 -14 20.72 -14 L 15.82 -14 L 14.78 -14 C 14.73 -14 14.64 -13.97 14.64 -13.86 C 14.64 -13.75 14.73 -13.72 14.78 -13.72 C 15.26 -13.72 15.99 -13.41 16.27 -12.68 Z M 26.54 -12.68 L 22.2 0 L 23.6 0 L 27.94 -12.68 C 28.2 -13.41 28.92 -13.72 29.4 -13.72 C 29.46 -13.72 29.54 -13.75 29.54 -13.86 C 29.54 -13.97 29.46 -14 29.4 -14 L 28.36 -14 L 27.02 -14 L 25.98 -14 C 25.93 -14 25.84 -13.97 25.84 -13.86 C 25.84 -13.75 25.93 -13.72 25.98 -13.72 C 26.46 -13.72 26.8 -13.41 26.54 -12.68 Z M 38.44 -9.94 L 38.44 -3.39 C 38.44 -1.37 39.79 0.28 41.75 0.28 C 43.04 0.28 43.9 -0.36 44.52 -1.4 L 44.1 -1.96 C 43.85 -1.71 43.57 -1.6 43.29 -1.6 C 42.78 -1.6 42.36 -2.02 42.36 -2.97 L 42.36 -8.99 C 42.36 -12.94 39 -14.25 36.15 -14.25 C 32.84 -14.25 31.22 -12.68 31.22 -10.7 C 31.22 -9.21 32.23 -8.2 33.52 -8.2 C 34.8 -8.2 35.84 -9.21 35.84 -10.5 C 35.84 -11.09 35.64 -11.56 35.28 -12.1 C 35.08 -12.49 35.22 -13.13 36.23 -13.13 C 37.63 -13.13 38.44 -11.62 38.44 -9.94 Z M 34.69 0.28 C 37.18 0.28 38.72 -1.06 40.29 -3.14 L 38.44 -4.06 C 38.44 -2.27 37.74 -1.4 36.43 -1.4 C 35.22 -1.4 34.66 -2.52 34.66 -4.06 C 34.66 -5.71 35.2 -6.92 36.88 -7.17 L 39.23 -7.5 L 39.23 -8.57 L 36.54 -8.23 C 32.54 -7.81 30.6 -6.24 30.6 -3.61 C 30.6 -1.06 32.34 0.28 34.69 0.28 Z M 49.7 0 L 50.74 0 C 50.79 0 50.88 -0.03 50.88 -0.14 C 50.88 -0.25 50.79 -0.28 50.74 -0.28 C 50.26 -0.28 49.73 -0.62 49.73 -1.4 L 49.73 -14.14 C 49.73 -14.31 49.56 -14.39 49.42 -14.31 C 48.44 -13.58 47.07 -13.16 45.84 -13.16 L 44.8 -13.16 C 44.74 -13.16 44.66 -13.13 44.66 -13.02 C 44.66 -12.91 44.74 -12.88 44.8 -12.88 C 45.28 -12.88 45.81 -12.54 45.81 -11.76 L 45.81 -1.4 C 45.81 -0.62 45.28 -0.28 44.8 -0.28 C 44.74 -0.28 44.66 -0.25 44.66 -0.14 C 44.66 -0.03 44.74 0 44.8 0 L 45.84 0 Z M 47.77 -15.68 C 48.89 -15.68 49.73 -16.46 49.73 -17.64 C 49.73 -18.76 48.94 -19.6 47.77 -19.6 C 46.65 -19.6 45.81 -18.82 45.81 -17.64 C 45.81 -16.52 46.59 -15.68 47.77 -15.68 Z M 56.87 0 L 57.9 0 C 57.96 0 58.04 -0.03 58.04 -0.14 C 58.04 -0.25 57.96 -0.28 57.9 -0.28 C 57.43 -0.28 56.9 -0.62 56.9 -1.4 L 56.9 -19.74 C 56.9 -19.91 56.73 -19.99 56.59 -19.91 C 55.61 -19.18 54.24 -18.76 53 -18.76 L 51.97 -18.76 C 51.91 -18.76 51.83 -18.73 51.83 -18.62 C 51.83 -18.51 51.91 -18.48 51.97 -18.48 C 52.44 -18.48 52.98 -18.14 52.98 -17.36 L 52.98 -1.4 C 52.98 -0.62 52.44 -0.28 51.97 -0.28 C 51.91 -0.28 51.83 -0.25 51.83 -0.14 C 51.83 -0.03 51.91 0 51.97 0 L 53 0 Z M 67.26 -9.94 L 67.26 -3.39 C 67.26 -1.37 68.6 0.28 70.56 0.28 C 71.85 0.28 72.72 -0.36 73.33 -1.4 L 72.91 -1.96 C 72.66 -1.71 72.38 -1.6 72.1 -1.6 C 71.6 -1.6 71.18 -2.02 71.18 -2.97 L 71.18 -8.99 C 71.18 -12.94 67.82 -14.25 64.96 -14.25 C 61.66 -14.25 60.03 -12.68 60.03 -10.7 C 60.03 -9.21 61.04 -8.2 62.33 -8.2 C 63.62 -8.2 64.65 -9.21 64.65 -10.5 C 64.65 -11.09 64.46 -11.56 64.09 -12.1 C 63.9 -12.49 64.04 -13.13 65.04 -13.13 C 66.44 -13.13 67.26 -11.62 67.26 -9.94 Z M 63.5 0.28 C 66 0.28 67.54 -1.06 69.1 -3.14 L 67.26 -4.06 C 67.26 -2.27 66.56 -1.4 65.24 -1.4 C 64.04 -1.4 63.48 -2.52 63.48 -4.06 C 63.48 -5.71 64.01 -6.92 65.69 -7.17 L 68.04 -7.5 L 68.04 -8.57 L 65.35 -8.23 C 61.35 -7.81 59.42 -6.24 59.42 -3.61 C 59.42 -1.06 61.15 0.28 63.5 0.28 Z M 74.62 -17.36 L 74.62 0 C 74.62 0.14 74.87 0.2 75.01 0.14 L 78.54 -1.74 L 78.54 -19.74 C 78.54 -19.91 78.37 -19.99 78.23 -19.91 C 77.25 -19.18 75.88 -18.76 74.65 -18.76 L 73.61 -18.76 C 73.56 -18.76 73.47 -18.73 73.47 -18.62 C 73.47 -18.51 73.56 -18.48 73.61 -18.48 C 74.09 -18.48 74.62 -18.14 74.62 -17.36 Z M 81.09 0.28 C 85.26 0.28 87.56 -2.46 87.56 -7.03 C 87.56 -11.42 85.71 -14.28 82.12 -14.28 C 78.85 -14.28 76.78 -10.81 76.33 -1.85 C 76.78 -1.18 78.79 0.28 81.09 0.28 Z M 81.09 -1.2 C 79.58 -1.2 78.54 -3.08 78.54 -7.03 C 78.54 -10.84 79.52 -12.82 81.09 -12.82 C 82.77 -12.82 83.5 -10.95 83.5 -7.03 C 83.5 -3.22 82.88 -1.2 81.09 -1.2 Z M 93.97 0 L 95 0 C 95.06 0 95.14 -0.03 95.14 -0.14 C 95.14 -0.25 95.06 -0.28 95 -0.28 C 94.53 -0.28 94 -0.62 94 -1.4 L 94 -19.74 C 94 -19.91 93.83 -19.99 93.69 -19.91 C 92.71 -19.18 91.34 -18.76 90.1 -18.76 L 89.07 -18.76 C 89.01 -18.76 88.93 -18.73 88.93 -18.62 C 88.93 -18.51 89.01 -18.48 89.07 -18.48 C 89.54 -18.48 90.08 -18.14 90.08 -17.36 L 90.08 -1.4 C 90.08 -0.62 89.54 -0.28 89.07 -0.28 C 89.01 -0.28 88.93 -0.25 88.93 -0.14 C 88.93 -0.03 89.01 0 89.07 0 L 90.1 0 Z M 99.15 -7.03 L 108.28 -7.03 L 108.28 -8.15 L 99.15 -8.15 Z M 96.52 -7.03 C 96.52 -2.6 99.29 0.28 103.46 0.28 C 105.84 0.28 107.58 -0.67 109 -2.83 L 108.19 -3.56 C 107.16 -2.32 105.76 -1.68 104.38 -1.68 C 101.78 -1.68 100.44 -3.39 100.44 -7.03 C 100.44 -11.06 101.67 -13.19 103.26 -13.19 C 104.8 -13.19 105.39 -11.17 105.39 -7.03 L 109.17 -7.03 C 109.17 -11.42 107.3 -14.28 103.18 -14.28 C 99.12 -14.28 96.52 -11.62 96.52 -7.03 Z M 111.83 -5.6 L 114.63 -5.6 L 115.19 -19.6 L 111.27 -19.6 Z M 113.23 0.28 C 114.52 0.28 115.47 -0.62 115.47 -1.96 C 115.47 -3.25 114.58 -4.2 113.23 -4.2 C 111.94 -4.2 110.99 -3.3 110.99 -1.96 C 110.99 -0.67 111.89 0.28 113.23 0.28 Z" stroke-linecap="round"/>
</g>
</g>
</g>
<g transform="matrix(2.4129221083885364 0 0 2.4129221083885364 486.0079491657505 275.50703469398127)" id="text-logo">
<g style="" paint-order="stroke">
		<g transform="matrix(1 0 0 1 2.842171e-14 0)" id="text-logo-path-0">
<path style="stroke: none; stroke-width: 0; stroke-dasharray: none; stroke-linecap: butt; stroke-dashoffset: 0; stroke-linejoin: miter; stroke-miterlimit: 4; fill: rgb(255,127,81); fill-rule: nonzero; opacity: 1;" paint-order="stroke" transform=" translate(-115.5, 26.25)" d="M 3 0 L 23.25 0 L 23.25 -18 L 15.75 -18 L 15.75 -19.5 L 30.75 -19.5 L 30.75 -18 L 24.75 -18 L 24.75 0 L 45 0 L 45 -52.5 L 24.75 -52.5 L 24.75 -34.5 L 30.75 -34.5 L 30.75 -33 L 15.75 -33 L 15.75 -34.5 L 23.25 -34.5 L 23.25 -52.5 L 3 -52.5 Z M 51 -52.5 L 51 -39.38 L 58.5 -39.38 L 58.5 -13.13 L 51 -13.13 L 51 0 L 90.15 0 L 90.15 -23.4 L 87.67 -23.4 L 77.63 -13.13 L 71.63 -13.13 L 71.63 -19.65 L 78.15 -26.25 L 71.63 -32.77 L 71.63 -39.38 L 77.63 -39.38 L 87.67 -29.1 L 90.15 -29.1 L 90.15 -52.5 Z M 96.15 -45.6 L 96.15 -8.4 C 96.15 -3.52 99.68 0 104.55 0 L 126.68 0 C 130.65 0 133.57 -2.85 133.57 -6.75 C 133.57 -10.65 130.65 -13.5 126.68 -13.5 L 120 -13.5 C 116.03 -13.5 113.1 -10.57 113.1 -6.6 L 113.1 -6 C 113.1 -3 110.78 -1.5 107.7 -1.5 L 104.55 -1.5 C 100.58 -1.5 97.65 -4.42 97.65 -8.4 L 97.65 -11.55 C 97.65 -14.63 99.15 -16.95 102.15 -16.95 L 102.75 -16.95 C 106.73 -16.95 109.65 -19.88 109.65 -23.85 L 109.65 -45.6 C 109.65 -49.57 106.8 -52.5 102.9 -52.5 C 99 -52.5 96.15 -49.57 96.15 -45.6 Z M 139.57 -45.6 L 139.57 -8.4 C 139.57 -3.52 143.1 0 147.97 0 L 170.1 0 C 174.07 0 177 -2.85 177 -6.75 C 177 -10.65 174.07 -13.5 170.1 -13.5 L 163.42 -13.5 C 159.45 -13.5 156.52 -10.57 156.52 -6.6 L 156.52 -6 C 156.52 -3 154.2 -1.5 151.13 -1.5 L 147.97 -1.5 C 144 -1.5 141.07 -4.42 141.07 -8.4 L 141.07 -11.55 C 141.07 -14.63 142.57 -16.95 145.57 -16.95 L 146.17 -16.95 C 150.15 -16.95 153.07 -19.88 153.07 -23.85 L 153.07 -45.6 C 153.07 -49.57 150.22 -52.5 146.32 -52.5 C 142.42 -52.5 139.57 -49.57 139.57 -45.6 Z M 205.5 -48.75 L 205.5 -52.5 C 191.1 -52.5 179.25 -40.73 179.25 -26.32 C 179.25 -11.78 191.1 0 205.5 0 L 205.5 -3.75 C 193.2 -3.75 183 -13.88 183 -26.32 C 183 -38.63 193.2 -48.75 205.5 -48.75 Z M 205.5 -48.75 L 205.5 -45 C 215.85 -45 224.25 -36.6 224.25 -26.32 C 224.25 -15.97 215.85 -7.57 205.5 -7.57 L 205.5 -3.82 C 217.95 -3.82 228 -13.88 228 -26.32 C 228 -38.7 217.95 -48.75 205.5 -48.75 Z M 205.5 -7.57 L 205.5 -11.32 C 197.32 -11.32 190.65 -18 190.65 -26.32 C 190.65 -34.5 197.32 -41.17 205.5 -41.17 L 205.5 -44.92 C 195.22 -44.92 186.9 -36.6 186.9 -26.32 C 186.9 -15.9 195.22 -7.57 205.5 -7.57 Z M 205.5 -41.17 L 205.5 -37.57 C 199.28 -37.57 194.25 -32.55 194.25 -26.25 C 194.25 -19.95 199.28 -14.92 205.5 -14.92 L 205.5 -11.32 C 213.82 -11.32 220.43 -18 220.43 -26.32 C 220.43 -34.5 213.82 -41.17 205.5 -41.17 Z M 205.5 -15.07 L 205.5 -18.68 C 201.38 -18.68 198 -22.05 198 -26.25 C 198 -30.45 201.38 -33.82 205.5 -33.82 L 205.5 -37.42 C 211.72 -37.42 216.68 -32.4 216.68 -26.32 C 216.68 -20.1 211.72 -15.07 205.5 -15.07 Z M 205.5 -22.57 L 205.5 -18.82 C 209.7 -18.82 213 -22.13 213 -26.25 C 213 -30.38 209.7 -33.75 205.5 -33.75 L 205.5 -30 C 207.6 -30 209.25 -28.27 209.25 -26.25 C 209.25 -24.22 207.6 -22.57 205.5 -22.57 Z" stroke-linecap="round"/>
</g>
</g>
</g>
<g transform="matrix(0.6839156242427851 -0.8753720803756587 0.8753720803756591 0.6839156242427858 200.51895762819618 260.7891710413096)" id="shape-b8ea6f39-ab58-428e-baf9-716a83b6d7a5">
<path style="stroke: none; stroke-width: 0; stroke-dasharray: none; stroke-linecap: butt; stroke-dashoffset: 0; stroke-linejoin: miter; stroke-miterlimit: 4; fill: rgb(88,241,173); fill-rule: nonzero; opacity: 1;" paint-order="stroke" transform=" translate(-204.85000000000002, -157.5)" d="M 294.1 145.5 C 288.70000000000005 145.5 284.1 149.1 282.6 154 L 221.70000000000002 154 L 221.70000000000002 139.4 L 185.40000000000003 139.4 L 185.40000000000003 154 L 127.10000000000004 154 C 125.60000000000004 149.1 121.00000000000004 145.5 115.60000000000004 145.5 C 109.00000000000004 145.5 103.60000000000004 150.9 103.60000000000004 157.5 C 103.60000000000004 164.1 109.00000000000004 169.5 115.60000000000004 169.5 C 121.00000000000004 169.5 125.60000000000004 165.9 127.10000000000004 161 L 185.40000000000003 161 L 185.40000000000003 175.6 L 221.70000000000005 175.6 L 221.70000000000005 161 L 282.6 161 C 284.1 165.9 288.70000000000005 169.5 294.1 169.5 C 300.70000000000005 169.5 306.1 164.1 306.1 157.5 C 306 150.8 300.7 145.5 294.1 145.5 z M 216.7 170.6 L 190.39999999999998 170.6 L 190.39999999999998 161 L 190.39999999999998 154 L 190.39999999999998 144.4 L 216.7 144.4 L 216.7 154 L 216.7 161 L 216.7 170.6 z" stroke-linecap="round"/>
</g>
<g transform="matrix(2.4129221083885364 0 0 2.4129221083885364 727.0245949562172 428.18617611022745)" id="tagline-bda05409-23b5-49ea-bf39-fd5c6a163a83-logo">
<g style="" paint-order="stroke">
		<g transform="matrix(1 0 0 1 0 0)" id="tagline-bda05409-23b5-49ea-bf39-fd5c6a163a83-logo-path-0">
<path style="stroke: none; stroke-width: 0; stroke-dasharray: none; stroke-linecap: butt; stroke-dashoffset: 0; stroke-linejoin: miter; stroke-miterlimit: 4; fill: rgb(88,241,173); fill-rule: nonzero; opacity: 1;" paint-order="stroke" transform=" translate(-75.74000000000001, 13.365)" d="M 1.93 -17.33 L 1.93 -17.33 Q 1.93 -17.57 2.2 -17.64 L 2.2 -17.64 Q 3.54 -17.93 4.97 -18.24 Q 6.41 -18.56 7.69 -19.06 L 7.69 -19.06 Q 7.74 -19.07 7.84 -19.07 L 7.84 -19.07 Q 8.07 -19.07 8.08 -18.9 L 8.08 -18.9 L 10 -7.08 L 12.68 -17.4 Q 12.73 -17.59 12.97 -17.64 L 12.97 -17.64 Q 14.36 -17.94 15.81 -18.27 Q 17.26 -18.59 18.59 -19.07 L 18.59 -19.07 Q 18.83 -19.07 18.83 -18.9 L 18.83 -18.9 L 20.58 -7.25 L 23.84 -18.9 Q 23.91 -19.07 24.1 -19.07 L 24.1 -19.07 Q 24.15 -19.07 24.17 -19.06 Q 24.18 -19.06 24.23 -19.06 L 24.23 -19.06 Q 25.52 -18.56 26.87 -18.24 Q 28.22 -17.93 29.55 -17.64 L 29.55 -17.64 Q 29.87 -17.57 29.87 -17.26 L 29.87 -17.26 Q 29.87 -17.04 29.67 -16.58 L 29.67 -16.58 L 24.17 -1.33 Q 24.03 -1.04 23.93 -0.85 Q 23.82 -0.65 23.72 -0.54 Q 23.62 -0.43 23.5 -0.37 Q 23.38 -0.31 23.21 -0.27 L 23.21 -0.27 Q 21.91 0 20.58 0.32 Q 19.24 0.65 17.81 1.15 L 17.81 1.15 Q 17.77 1.15 17.76 1.15 Q 17.74 1.16 17.72 1.16 L 17.72 1.16 L 17.6 1.16 Q 17.52 1.16 17.47 1.1 Q 17.41 1.04 17.4 0.99 L 17.4 0.99 Q 17.21 0.26 16.97 -0.84 Q 16.73 -1.93 16.46 -3.26 Q 16.18 -4.6 15.88 -6.12 Q 15.57 -7.64 15.24 -9.25 L 15.24 -9.25 L 13.07 -1.61 Q 12.99 -1.3 12.89 -1.1 Q 12.8 -0.91 12.68 -0.79 Q 12.56 -0.68 12.42 -0.63 Q 12.29 -0.58 12.12 -0.55 L 12.12 -0.55 Q 10.82 -0.29 9.48 0.04 Q 8.15 0.38 6.72 0.87 L 6.72 0.87 Q 6.68 0.87 6.67 0.88 Q 6.65 0.89 6.63 0.89 L 6.63 0.89 L 6.51 0.89 Q 6.43 0.89 6.37 0.83 Q 6.31 0.77 6.31 0.72 L 6.31 0.72 Q 6.07 -0.03 5.76 -1.19 Q 5.45 -2.34 5.1 -3.77 Q 4.75 -5.2 4.38 -6.82 Q 4 -8.44 3.61 -10.12 Q 3.21 -11.79 2.83 -13.44 Q 2.44 -15.09 2.08 -16.58 L 2.08 -16.58 Q 1.97 -16.85 1.95 -17.03 Q 1.93 -17.21 1.93 -17.33 Z M 30.95 0.26 L 30.95 0.26 L 32.9 -24.85 Q 32.9 -24.95 32.89 -25.04 Q 32.88 -25.12 32.88 -25.21 L 32.88 -25.21 Q 32.88 -25.36 33 -25.47 Q 33.12 -25.58 33.58 -25.7 L 33.58 -25.7 L 38.38 -26.85 Q 38.57 -26.88 38.88 -27 Q 39.19 -27.12 39.48 -27.12 L 39.48 -27.12 Q 40.08 -27.12 40.08 -26.57 L 40.08 -26.57 Q 40.08 -26.54 40.02 -25.87 Q 39.97 -25.21 39.89 -24.22 Q 39.8 -23.23 39.7 -22.05 Q 39.6 -20.88 39.49 -19.82 Q 39.39 -18.76 39.31 -17.97 Q 39.22 -17.18 39.17 -16.94 L 39.17 -16.94 Q 39.97 -17.38 40.84 -17.77 Q 41.72 -18.17 42.6 -18.46 Q 43.48 -18.75 44.36 -18.91 Q 45.24 -19.07 46.06 -19.07 L 46.06 -19.07 Q 47.1 -19.07 48.01 -18.77 Q 48.91 -18.47 49.59 -17.78 Q 50.26 -17.09 50.65 -15.97 Q 51.03 -14.85 51.03 -13.23 L 51.03 -13.23 Q 51.03 -12.82 51.01 -12.38 Q 51 -11.95 50.94 -11.48 L 50.94 -11.48 L 50.21 -4.49 Q 50.12 -3.78 50.11 -3 Q 50.09 -2.22 50.09 -1.4 L 50.09 -1.4 Q 50.09 -1.26 50.1 -1.17 Q 50.11 -1.08 50.11 -1.01 L 50.11 -1.01 Q 50.11 -0.85 49.98 -0.77 Q 49.85 -0.68 49.41 -0.55 L 49.41 -0.55 L 45.22 0.62 Q 45.03 0.67 44.72 0.78 Q 44.42 0.89 44.13 0.89 L 44.13 0.89 Q 43.84 0.89 43.68 0.76 Q 43.53 0.63 43.53 0.26 L 43.53 0.26 Q 43.65 -1.03 43.72 -1.81 Q 43.8 -2.6 43.84 -3.07 Q 43.89 -3.54 43.92 -3.79 Q 43.96 -4.03 43.97 -4.23 Q 43.99 -4.43 44.02 -4.67 Q 44.06 -4.92 44.1 -5.4 Q 44.14 -5.88 44.22 -6.67 Q 44.3 -7.45 44.42 -8.73 L 44.42 -8.73 Q 44.48 -9.42 44.56 -10.09 Q 44.64 -10.77 44.64 -11.33 L 44.64 -11.33 Q 44.64 -12.05 44.56 -12.64 Q 44.48 -13.23 44.29 -13.65 Q 44.09 -14.06 43.75 -14.3 Q 43.41 -14.54 42.88 -14.54 L 42.88 -14.54 Q 42.49 -14.54 41.81 -14.37 Q 41.14 -14.2 40.46 -13.81 Q 39.79 -13.42 39.26 -12.77 Q 38.74 -12.13 38.67 -11.19 L 38.67 -11.19 Q 38.54 -9.88 38.46 -9.04 Q 38.38 -8.2 38.33 -7.66 Q 38.28 -7.11 38.26 -6.78 Q 38.23 -6.46 38.21 -6.19 L 38.21 -6.19 Q 38.2 -6.1 38.16 -5.77 Q 38.13 -5.43 38.08 -4.97 Q 38.02 -4.51 37.97 -3.99 Q 37.92 -3.47 37.88 -3.01 Q 37.84 -2.55 37.81 -2.21 Q 37.79 -1.88 37.79 -1.79 L 37.79 -1.79 Q 37.79 -1.66 37.79 -1.56 Q 37.8 -1.47 37.8 -1.38 L 37.8 -1.38 Q 37.8 -1.25 37.67 -1.15 Q 37.55 -1.06 37.1 -0.94 L 37.1 -0.94 L 32.64 0.62 Q 32.45 0.68 32.15 0.79 Q 31.84 0.89 31.55 0.89 L 31.55 0.89 Q 31.29 0.89 31.12 0.74 Q 30.95 0.6 30.95 0.26 Z M 53.3 -8.53 L 53.3 -8.53 Q 53.3 -10.36 53.9 -12.01 Q 54.5 -13.65 55.58 -14.96 Q 56.65 -16.27 58.16 -17.15 Q 59.66 -18.03 61.47 -18.34 L 61.47 -18.34 Q 61.75 -18.35 61.75 -18.46 L 61.75 -18.46 Q 61.75 -18.65 61.7 -18.81 Q 61.66 -18.97 61.66 -19.09 L 61.66 -19.09 Q 61.66 -19.28 61.73 -19.35 Q 61.8 -19.41 61.88 -19.41 L 61.88 -19.41 Q 65.15 -19.41 67.44 -18.67 Q 69.73 -17.93 71.16 -16.65 Q 72.6 -15.36 73.25 -13.62 Q 73.9 -11.88 73.9 -9.88 L 73.9 -9.88 Q 73.9 -7.33 73.04 -5.33 Q 72.19 -3.33 70.71 -1.95 Q 69.23 -0.56 67.26 0.16 Q 65.28 0.89 63.04 0.89 L 63.04 0.89 Q 60.63 0.89 58.81 0.1 Q 56.99 -0.68 55.76 -1.99 Q 54.53 -3.3 53.92 -5 Q 53.3 -6.7 53.3 -8.53 Z M 59.88 -8.72 L 59.88 -8.72 Q 59.88 -7.79 60.08 -6.89 Q 60.28 -5.98 60.73 -5.25 Q 61.18 -4.51 61.92 -4.06 Q 62.65 -3.61 63.75 -3.61 L 63.75 -3.61 Q 64.53 -3.64 65.12 -3.96 Q 65.71 -4.27 66.14 -4.78 Q 66.56 -5.28 66.85 -5.91 Q 67.13 -6.55 67.29 -7.22 Q 67.45 -7.9 67.52 -8.54 Q 67.59 -9.19 67.59 -9.72 L 67.59 -9.72 Q 67.59 -10.61 67.33 -11.47 Q 67.06 -12.32 66.55 -12.97 Q 66.04 -13.62 65.27 -14.02 Q 64.51 -14.42 63.52 -14.42 L 63.52 -14.42 Q 62.5 -14.42 61.8 -13.82 Q 61.1 -13.21 60.68 -12.32 Q 60.26 -11.43 60.07 -10.45 Q 59.88 -9.47 59.88 -8.72 Z M 75.81 -8.1 L 75.81 -8.1 Q 75.81 -10.54 76.52 -12.56 Q 77.23 -14.58 78.44 -16.03 Q 79.66 -17.48 81.27 -18.28 Q 82.89 -19.07 84.7 -19.07 L 84.7 -19.07 Q 85.98 -19.07 87.12 -18.55 Q 88.27 -18.03 89.29 -17.21 L 89.29 -17.21 Q 89.4 -17.72 89.41 -18.03 Q 89.43 -18.34 89.49 -18.51 Q 89.55 -18.68 89.72 -18.74 Q 89.89 -18.8 90.29 -18.83 L 90.29 -18.83 Q 91.52 -19 92.74 -19.15 Q 93.96 -19.29 95.29 -19.36 L 95.29 -19.36 L 93.53 -3.44 Q 93.52 -3.37 93.52 -3.31 Q 93.52 -3.25 93.52 -3.2 L 93.52 -3.2 Q 93.52 -2.77 93.65 -2.49 Q 93.79 -2.2 93.95 -2.03 Q 94.11 -1.85 94.25 -1.73 Q 94.39 -1.62 94.39 -1.54 L 94.39 -1.54 Q 94.39 -1.3 93.87 -1.09 L 93.87 -1.09 L 89.28 0.87 Q 89.26 0.89 89.16 0.89 L 89.16 0.89 Q 89.02 0.89 88.88 0.65 Q 88.75 0.41 88.62 0.04 Q 88.49 -0.32 88.38 -0.74 Q 88.27 -1.16 88.18 -1.52 L 88.18 -1.52 Q 87.11 -0.27 85.86 0.31 Q 84.61 0.89 83.38 0.89 L 83.38 0.89 Q 81.95 0.89 80.58 0.26 Q 79.21 -0.38 78.15 -1.55 Q 77.09 -2.72 76.45 -4.38 Q 75.81 -6.03 75.81 -8.1 Z M 82.6 -8.94 L 82.6 -8.94 Q 82.6 -6.24 83.3 -4.98 Q 84.01 -3.73 85.28 -3.73 L 85.28 -3.73 Q 85.79 -3.73 86.42 -4.02 Q 87.06 -4.31 87.71 -4.82 L 87.71 -4.82 L 88.42 -9.88 Q 88.59 -10.85 88.65 -11.72 Q 88.71 -12.58 88.75 -13.3 L 88.75 -13.3 Q 88.47 -13.5 88.16 -13.72 Q 87.84 -13.95 87.47 -14.14 Q 87.11 -14.34 86.71 -14.46 Q 86.3 -14.58 85.86 -14.58 L 85.86 -14.58 Q 84.94 -14.58 84.31 -13.98 Q 83.69 -13.38 83.3 -12.51 Q 82.92 -11.64 82.76 -10.66 Q 82.6 -9.69 82.6 -8.94 Z M 97.19 0.36 L 97.19 0.36 L 98.73 -17.07 Q 98.78 -17.64 98.86 -17.85 Q 98.93 -18.06 99.24 -18.13 L 99.24 -18.13 Q 100.8 -18.44 102.42 -18.76 Q 104.04 -19.07 105.6 -19.57 L 105.6 -19.57 Q 105.73 -19.57 105.76 -19.53 Q 105.79 -19.48 105.79 -19.4 L 105.79 -19.4 L 105.56 -16.9 Q 106.2 -17.23 106.98 -17.61 Q 107.77 -18 108.63 -18.32 Q 109.49 -18.65 110.39 -18.86 Q 111.29 -19.07 112.14 -19.07 L 112.14 -19.07 Q 113.32 -19.07 114.32 -18.53 Q 115.32 -18 115.97 -16.75 L 115.97 -16.75 Q 116.74 -17.24 117.6 -17.67 Q 118.47 -18.1 119.36 -18.41 Q 120.26 -18.71 121.17 -18.88 Q 122.07 -19.06 122.93 -19.06 L 122.93 -19.06 Q 124 -19.06 124.96 -18.75 Q 125.92 -18.44 126.63 -17.74 Q 127.34 -17.04 127.75 -15.92 Q 128.16 -14.8 128.16 -13.19 L 128.16 -13.19 Q 128.16 -12.78 128.14 -12.35 Q 128.12 -11.91 128.07 -11.45 L 128.07 -11.45 L 127.29 -4.14 Q 127.2 -3.42 127.18 -2.81 Q 127.17 -2.2 127.17 -1.4 L 127.17 -1.4 Q 127.17 -1.26 127.17 -1.17 Q 127.18 -1.08 127.18 -1.01 L 127.18 -1.01 Q 127.18 -0.85 127.05 -0.77 Q 126.93 -0.68 126.48 -0.55 L 126.48 -0.55 L 122.28 0.62 Q 122.09 0.67 121.78 0.78 Q 121.47 0.89 121.18 0.89 L 121.18 0.89 Q 120.94 0.89 120.77 0.77 Q 120.59 0.65 120.59 0.36 L 120.59 0.36 L 120.59 0.26 Q 120.71 -0.99 120.79 -1.77 Q 120.88 -2.55 120.93 -3.02 Q 120.98 -3.5 121.01 -3.75 Q 121.05 -4 121.08 -4.21 Q 121.12 -4.43 121.14 -4.68 Q 121.17 -4.94 121.22 -5.41 Q 121.27 -5.88 121.35 -6.66 Q 121.42 -7.43 121.54 -8.7 L 121.54 -8.7 Q 121.61 -9.38 121.69 -10.06 Q 121.77 -10.73 121.77 -11.3 L 121.77 -11.3 Q 121.77 -12.01 121.69 -12.6 Q 121.61 -13.19 121.41 -13.61 Q 121.22 -14.03 120.88 -14.27 Q 120.53 -14.51 120 -14.51 L 120 -14.51 Q 119.68 -14.51 119.16 -14.37 Q 118.64 -14.24 118.11 -13.89 Q 117.58 -13.54 117.15 -12.96 Q 116.72 -12.39 116.6 -11.52 L 116.6 -11.52 L 116.6 -11.45 Q 116.4 -9.5 116.24 -8.07 Q 116.07 -6.65 115.95 -5.62 Q 115.83 -4.6 115.76 -3.91 Q 115.68 -3.23 115.63 -2.76 Q 115.58 -2.29 115.55 -1.98 Q 115.53 -1.67 115.53 -1.4 L 115.53 -1.4 Q 115.53 -1.26 115.54 -1.17 Q 115.54 -1.08 115.54 -1.01 L 115.54 -1.01 Q 115.54 -0.87 115.42 -0.78 Q 115.29 -0.68 114.84 -0.55 L 114.84 -0.55 L 110.83 0.62 Q 110.64 0.67 110.33 0.78 Q 110.02 0.89 109.73 0.89 L 109.73 0.89 Q 109.49 0.89 109.32 0.77 Q 109.14 0.65 109.14 0.36 L 109.14 0.36 L 109.14 0.26 Q 109.26 -0.99 109.33 -1.77 Q 109.41 -2.55 109.47 -3.02 Q 109.53 -3.5 109.56 -3.75 Q 109.6 -4 109.62 -4.21 Q 109.65 -4.43 109.68 -4.68 Q 109.72 -4.94 109.76 -5.41 Q 109.8 -5.88 109.88 -6.66 Q 109.96 -7.43 110.08 -8.7 L 110.08 -8.7 Q 110.14 -9.38 110.22 -10.06 Q 110.3 -10.73 110.3 -11.3 L 110.3 -11.3 Q 110.3 -12.01 110.23 -12.6 Q 110.16 -13.19 109.98 -13.61 Q 109.8 -14.03 109.49 -14.27 Q 109.19 -14.51 108.71 -14.51 L 108.71 -14.51 Q 108.37 -14.51 107.78 -14.34 Q 107.19 -14.17 106.6 -13.77 Q 106.01 -13.38 105.56 -12.74 Q 105.1 -12.1 105.03 -11.16 L 105.03 -11.16 Q 104.9 -9.9 104.81 -9.08 Q 104.73 -8.27 104.68 -7.75 Q 104.62 -7.23 104.6 -6.91 Q 104.57 -6.6 104.56 -6.32 L 104.56 -6.32 Q 104.54 -6.25 104.5 -5.94 Q 104.47 -5.62 104.43 -5.19 Q 104.38 -4.75 104.34 -4.25 Q 104.3 -3.74 104.27 -3.31 Q 104.23 -2.87 104.21 -2.55 Q 104.18 -2.24 104.18 -2.17 L 104.18 -2.17 L 104.18 -1.86 Q 104.18 -1.69 104.16 -1.57 Q 104.15 -1.45 104.06 -1.35 Q 103.97 -1.25 103.81 -1.16 Q 103.65 -1.08 103.36 -0.97 L 103.36 -0.97 L 98.88 0.62 Q 98.69 0.68 98.39 0.79 Q 98.08 0.89 97.79 0.89 L 97.79 0.89 Q 97.55 0.89 97.37 0.77 Q 97.19 0.65 97.19 0.36 Z M 130.52 0.72 L 130.52 0.72 Q 130.52 0.7 130.55 0.26 Q 130.58 -0.19 130.64 -0.89 Q 130.7 -1.59 130.77 -2.46 Q 130.84 -3.33 130.92 -4.2 Q 130.99 -5.08 131.06 -5.88 Q 131.13 -6.68 131.18 -7.25 L 131.18 -7.25 Q 131.4 -9.59 131.63 -11.88 Q 131.85 -14.17 132.02 -16.58 L 132.02 -16.58 Q 132.05 -17.14 132.13 -17.35 Q 132.21 -17.57 132.51 -17.64 L 132.51 -17.64 Q 133.97 -17.93 135.56 -18.24 Q 137.15 -18.56 138.63 -19.06 L 138.63 -19.06 Q 138.68 -19.07 138.79 -19.07 L 138.79 -19.07 Q 138.97 -19.07 138.97 -18.94 L 138.97 -18.94 L 137.44 -2.29 Q 137.39 -1.73 137.32 -1.51 Q 137.25 -1.3 136.94 -1.23 L 136.94 -1.23 Q 135.49 -0.79 134 -0.24 Q 132.51 0.31 130.86 0.87 L 130.86 0.87 Q 130.81 0.89 130.7 0.89 L 130.7 0.89 Q 130.52 0.89 130.52 0.72 Z M 132.46 -20.88 L 132.46 -20.88 Q 132.51 -21.62 132.54 -22.01 Q 132.57 -22.4 132.58 -22.6 Q 132.6 -22.8 132.6 -22.85 Q 132.6 -22.9 132.61 -22.93 Q 132.62 -22.95 132.63 -23.03 Q 132.63 -23.11 132.65 -23.35 Q 132.67 -23.6 132.7 -24.08 Q 132.74 -24.56 132.81 -25.4 L 132.81 -25.4 Q 132.84 -25.96 132.92 -26.17 Q 132.99 -26.39 133.3 -26.46 L 133.3 -26.46 Q 134.75 -26.75 136.34 -27.06 Q 137.93 -27.38 139.42 -27.87 L 139.42 -27.87 Q 139.47 -27.89 139.57 -27.89 L 139.57 -27.89 Q 139.62 -27.79 139.71 -27.75 L 139.71 -27.75 L 139.76 -27.72 L 139.38 -23.04 Q 139.33 -22.47 139.26 -22.25 Q 139.18 -22.03 138.89 -21.98 L 138.89 -21.98 Q 137.44 -21.7 135.95 -21.38 Q 134.46 -21.05 132.81 -20.73 L 132.81 -20.73 Q 132.75 -20.71 132.65 -20.71 L 132.65 -20.71 Q 132.46 -20.71 132.46 -20.88 Z M 141.86 0.72 L 141.86 0.65 Q 141.9 -0.15 141.91 -0.62 Q 141.93 -1.09 141.94 -1.35 Q 141.95 -1.61 141.95 -1.71 Q 141.95 -1.81 141.95 -1.91 Q 141.95 -2 141.96 -2.14 Q 141.97 -2.27 141.98 -2.59 Q 142 -2.91 142.03 -3.46 Q 142.07 -4.02 142.12 -4.94 L 142.12 -4.94 Q 142.15 -5.5 142.23 -5.72 Q 142.31 -5.93 142.61 -5.98 L 142.61 -5.98 Q 144.12 -5.98 145.76 -5.99 Q 147.4 -6 148.85 -6.02 L 148.85 -6.02 Q 149.01 -6.02 149.11 -5.93 Q 149.21 -5.84 149.21 -5.61 L 149.21 -5.61 L 148.73 -0.24 Q 148.66 0.32 148.6 0.54 Q 148.54 0.75 148.22 0.79 L 148.22 0.79 Q 146.77 0.8 145.24 0.82 Q 143.71 0.84 142.05 0.84 L 142.05 0.84 Q 141.95 0.84 141.91 0.82 Q 141.86 0.8 141.86 0.72 L 141.86 0.72 Z M 142.2 -12.36 L 142.2 -12.36 L 142.2 -12.42 Q 142.24 -13.23 142.26 -13.7 Q 142.27 -14.17 142.28 -14.42 Q 142.29 -14.68 142.29 -14.78 Q 142.29 -14.89 142.29 -14.98 Q 142.29 -15.07 142.3 -15.21 Q 142.31 -15.35 142.32 -15.66 Q 142.34 -15.98 142.38 -16.53 Q 142.41 -17.09 142.46 -18.01 L 142.46 -18.01 Q 142.5 -18.58 142.57 -18.79 Q 142.65 -19 142.96 -19.06 L 142.96 -19.06 Q 144.46 -19.06 146.1 -19.06 Q 147.74 -19.07 149.19 -19.09 L 149.19 -19.09 Q 149.35 -19.09 149.45 -19 Q 149.55 -18.92 149.55 -18.68 L 149.55 -18.68 L 149.07 -13.31 Q 149.01 -12.75 148.95 -12.54 Q 148.89 -12.32 148.56 -12.29 L 148.56 -12.29 Q 147.11 -12.27 145.58 -12.25 Q 144.05 -12.24 142.39 -12.24 L 142.39 -12.24 Q 142.29 -12.24 142.25 -12.25 Q 142.2 -12.27 142.2 -12.36 Z" stroke-linecap="round"/>
</g>
</g>
</g>
<g transform="matrix(0.9010171938400615 0 0 0.9010171938400613 1552.9389857500073 507.3445447790165)" id="shape-7631c169-9667-47ca-8dc7-f5058317ee0e">
<g style="" paint-order="stroke">
		<g transform="matrix(1 0 0 1 67.29999999999995 -40.85000000000005)" id="shape-1">
<polygon style="stroke: none; stroke-width: 1; stroke-dasharray: none; stroke-linecap: butt; stroke-dashoffset: 0; stroke-linejoin: miter; stroke-miterlimit: 4; fill: rgb(255,255,255); fill-rule: nonzero; opacity: 1;" paint-order="stroke" points="47.60000000000002,-92.39999999999998 47.60000000000002,-87.19999999999999 26.200000000000045,-36.099999999999966 24.900000000000034,-32.89999999999998 16,-11.699999999999989 14.600000000000023,-8.399999999999977 3.6000000000000227,18 2.2000000000000455,21.200000000000045 -8,45.60000000000002 -9.299999999999955,48.80000000000001 -20.5,75.5 -20.799999999999955,75.60000000000002 -44.599999999999966,90.5 -47.599999999999966,92.40000000000003 -46.19999999999999,89.20000000000005 -43.299999999999955,87.30000000000001 -22.099999999999966,74.10000000000002 -12.299999999999955,50.60000000000002 -10.899999999999977,47.400000000000034 -0.6999999999999886,23 0.6000000000000227,19.80000000000001 11.700000000000045,-6.599999999999966 13,-9.799999999999955 21.900000000000034,-31.099999999999966 23.30000000000001,-34.299999999999955 "/>
</g>
		<g transform="matrix(1 0 0 1 109.1 -25.149999999999977)" id="shape-1">
<polygon style="stroke: none; stroke-width: 1; stroke-dasharray: none; stroke-linecap: butt; stroke-dashoffset: 0; stroke-linejoin: miter; stroke-miterlimit: 4; fill: rgb(255,255,255); fill-rule: nonzero; opacity: 1;" paint-order="stroke" points="-1.5,-0.20000000000004547 5.800000000000011,-4.800000000000011 5.800000000000011,-2.400000000000034 -2.8000000000000114,2.8999999999999773 -5.800000000000011,4.7999999999999545 -4.399999999999977,1.599999999999966 "/>
</g>
		<g transform="matrix(1 0 0 1 50.20000000000002 60.74999999999997)" id="shape-1">
<polygon style="stroke: none; stroke-width: 1; stroke-dasharray: none; stroke-linecap: butt; stroke-dashoffset: 0; stroke-linejoin: miter; stroke-miterlimit: 4; fill: rgb(255,255,255); fill-rule: nonzero; opacity: 1;" paint-order="stroke" points="29.899999999999977,11.100000000000023 64.69999999999999,-72.5 64.69999999999999,-66.89999999999998 31.5,12.399999999999977 31.19999999999999,12.600000000000023 -61.69999999999999,70.69999999999999 -64.69999999999999,72.5 -63.30000000000001,69.30000000000001 -60.400000000000034,67.5 -60.400000000000034,67.39999999999998 "/>
</g>
		<g transform="matrix(1 0 0 1 55.349999999999994 30.350000000000023)" id="shape-1">
<polygon style="stroke: none; stroke-width: 1; stroke-dasharray: none; stroke-linecap: butt; stroke-dashoffset: 0; stroke-linejoin: miter; stroke-miterlimit: 4; fill: rgb(255,255,255); fill-rule: nonzero; opacity: 1;" paint-order="stroke" points="49.35000000000002,-53.900000000000034 59.55000000000001,-78.40000000000003 59.55000000000001,-73.20000000000005 52.25,-55.700000000000045 52.25,-55.700000000000045 50.94999999999999,-52.60000000000002 15.75,31.399999999999977 15.550000000000011,31.599999999999966 -56.64999999999998,76.59999999999997 -59.55000000000001,78.39999999999998 -58.25,75.19999999999999 -58.25,75.19999999999999 -55.349999999999966,73.39999999999998 14.150000000000034,30 47.94999999999999,-50.700000000000045 47.94999999999999,-50.700000000000045 "/>
</g>
		<g transform="matrix(1 0 0 1 -69.25 125.14999999999992)" id="shape-1">
<polygon style="stroke: none; stroke-width: 1; stroke-dasharray: none; stroke-linecap: butt; stroke-dashoffset: 0; stroke-linejoin: miter; stroke-miterlimit: 4; fill: rgb(255,255,255); fill-rule: nonzero; opacity: 1;" paint-order="stroke" points="12.949999999999989,-8.099999999999966 11.649999999999977,-4.899999999999977 8.349999999999966,-2.8999999999999773 -9.150000000000034,8.100000000000023 -12.950000000000045,8.100000000000023 9.75,-6.099999999999966 "/>
</g>
		<g transform="matrix(1 0 0 1 61.549999999999955 -5.600000000000051)" id="shape-1">
<polygon style="stroke: none; stroke-width: 1; stroke-dasharray: none; stroke-linecap: butt; stroke-dashoffset: 0; stroke-linejoin: miter; stroke-miterlimit: 4; fill: rgb(255,255,255); fill-rule: nonzero; opacity: 1;" paint-order="stroke" points="53.35000000000002,-84.75 53.35000000000002,-79.54999999999995 46.05000000000001,-62.049999999999955 44.650000000000034,-58.849999999999966 33.650000000000034,-32.44999999999999 32.25,-29.25 22.05000000000001,-4.849999999999966 20.650000000000034,-1.6499999999999773 -2.0499999999999545,52.650000000000034 -2.25,52.85000000000002 -50.44999999999999,82.95000000000005 -53.349999999999966,84.75 -52.049999999999955,81.55000000000001 -49.049999999999955,79.75 -3.6499999999999773,51.35000000000002 17.75,0.25 19.150000000000034,-2.9499999999999886 29.350000000000023,-27.44999999999999 30.650000000000034,-30.549999999999955 41.75,-57.049999999999955 43.05000000000001,-60.25 51.950000000000045,-81.44999999999999 53.35000000000002,-84.64999999999998 "/>
</g>
		<g transform="matrix(1 0 0 1 -79.85 111.35000000000002)" id="shape-1">
<polygon style="stroke: none; stroke-width: 1; stroke-dasharray: none; stroke-linecap: butt; stroke-dashoffset: 0; stroke-linejoin: miter; stroke-miterlimit: 4; fill: rgb(255,255,255); fill-rule: nonzero; opacity: 1;" paint-order="stroke" points="35.05000000000001,-21.900000000000034 33.75,-18.700000000000045 30.55000000000001,-16.700000000000045 -31.25,21.899999999999977 -35.05000000000001,21.899999999999977 31.850000000000023,-19.900000000000034 "/>
</g>
		<g transform="matrix(1 0 0 1 12.550000000000011 29.049999999999983)" id="shape-1">
<polygon style="stroke: none; stroke-width: 1; stroke-dasharray: none; stroke-linecap: butt; stroke-dashoffset: 0; stroke-linejoin: miter; stroke-miterlimit: 4; fill: rgb(255,255,255); fill-rule: nonzero; opacity: 1;" paint-order="stroke" points="78.05000000000001,-104.19999999999999 76.65000000000003,-101.10000000000002 -13.549999999999955,-44.60000000000002 -57.349999999999966,60.39999999999998 -58.64999999999998,63.599999999999966 -68.84999999999997,87.89999999999998 -70.14999999999998,91.19999999999999 -75.54999999999995,104.19999999999999 -78.04999999999995,104.19999999999999 -73.44999999999999,93.19999999999999 -72.04999999999995,89.89999999999998 -61.849999999999966,65.59999999999997 -60.549999999999955,62.39999999999998 -15.149999999999977,-46.10000000000002 -14.849999999999966,-46.10000000000002 "/>
</g>
		<g transform="matrix(1 0 0 1 15.099999999999994 41.29999999999998)" id="shape-1">
<polygon style="stroke: none; stroke-width: 1; stroke-dasharray: none; stroke-linecap: butt; stroke-dashoffset: 0; stroke-linejoin: miter; stroke-miterlimit: 4; fill: rgb(255,255,255); fill-rule: nonzero; opacity: 1;" paint-order="stroke" points="65.19999999999999,-91.94999999999999 63.900000000000034,-88.75 -5.599999999999966,-45.35000000000002 -39.39999999999998,35.349999999999966 -40.69999999999999,38.55000000000001 -50.89999999999998,62.94999999999999 -52.30000000000001,66.14999999999998 -63.099999999999966,91.94999999999999 -65.19999999999999,91.94999999999999 -55.19999999999999,67.94999999999999 -53.89999999999998,64.84999999999997 -43.599999999999966,40.349999999999966 -42.30000000000001,37.14999999999998 -7.199999999999989,-46.75 -6.899999999999977,-46.94999999999999 "/>
</g>
		<g transform="matrix(1 0 0 1 17.750000000000057 56.10000000000002)" id="shape-1">
<polygon style="stroke: none; stroke-width: 1; stroke-dasharray: none; stroke-linecap: butt; stroke-dashoffset: 0; stroke-linejoin: miter; stroke-miterlimit: 4; fill: rgb(255,255,255); fill-rule: nonzero; opacity: 1;" paint-order="stroke" points="50.14999999999998,-77.15000000000003 48.849999999999966,-73.95000000000005 3.349999999999966,-45.55000000000001 -18.05000000000001,5.5499999999999545 -19.350000000000023,8.75 -29.55000000000001,33.14999999999998 -30.950000000000045,36.349999999999966 -41.950000000000045,62.849999999999966 -43.35000000000002,66.04999999999995 -47.950000000000045,77.14999999999998 -50.150000000000034,77.14999999999998 -46.25,67.84999999999997 -44.950000000000045,64.64999999999998 -33.85000000000002,38.25 -32.55000000000001,35.049999999999955 -22.25,10.549999999999955 -20.950000000000045,7.349999999999966 1.75,-46.85000000000002 2.0499999999999545,-47.150000000000034 "/>
</g>
		<g transform="matrix(1 0 0 1 20.950000000000017 69.89999999999992)" id="shape-1">
<polygon style="stroke: none; stroke-width: 1; stroke-dasharray: none; stroke-linecap: butt; stroke-dashoffset: 0; stroke-linejoin: miter; stroke-miterlimit: 4; fill: rgb(255,255,255); fill-rule: nonzero; opacity: 1;" paint-order="stroke" points="35.44999999999999,-63.349999999999966 34.05000000000001,-60.14999999999998 12.849999999999966,-46.94999999999999 3.0500000000000114,-23.44999999999999 1.75,-20.25 -8.449999999999989,4.25 -9.850000000000023,7.4500000000000455 -20.94999999999999,33.85000000000002 -22.25,37.05000000000001 -31.150000000000034,58.25 -31.150000000000034,58.35000000000002 -32.44999999999999,61.55000000000001 -33.25,63.35000000000002 -35.44999999999999,63.35000000000002 -34.05000000000001,60.05000000000001 -25.150000000000034,38.85000000000002 -23.850000000000023,35.650000000000034 -12.75,9.25 -11.449999999999989,6.050000000000011 -1.25,-18.349999999999966 0.14999999999997726,-21.549999999999955 11.25,-48.25 11.550000000000011,-48.44999999999999 "/>
</g>
</g>
</g>
<g transform="matrix(2.4129221083885364 0 0 2.4129221083885364 1122.9247376482995 274.91094102812303)" id="tagline-9a1040ac-c817-4e9e-be5c-c50ddf5e0fe3-logo">
<g style="" paint-order="stroke">
		<g transform="matrix(1 0 0 1 0 0)" id="tagline-9a1040ac-c817-4e9e-be5c-c50ddf5e0fe3-logo-path-0">
<path style="stroke: none; stroke-width: 0; stroke-dasharray: none; stroke-linecap: butt; stroke-dashoffset: 0; stroke-linejoin: miter; stroke-miterlimit: 4; fill: rgb(255,127,81); fill-rule: nonzero; opacity: 1;" paint-order="stroke" transform=" translate(-127.465, 26.285)" d="M 21.75 -37.5 L 6.45 -52.5 L 3 -52.5 L 3 -15.3 L 18.3 0 L 21.75 0 Z M 26.63 -39 L 26.63 0 L 30.75 -4.5 L 34.88 0 L 34.88 -39 L 30.75 -43.5 Z M 39.75 -37.5 L 39.75 0 L 43.2 0 L 58.5 -15.3 L 58.5 -52.5 L 55.05 -52.5 Z M 26.63 -48 L 26.63 -42.75 L 30.75 -47.25 L 34.88 -42.75 L 34.88 -48 L 30.75 -52.5 Z M 90.75 -48.75 L 90.75 -52.5 C 76.35 -52.5 64.5 -40.73 64.5 -26.32 C 64.5 -11.78 76.35 0 90.75 0 L 90.75 -3.75 C 78.45 -3.75 68.25 -13.88 68.25 -26.32 C 68.25 -38.63 78.45 -48.75 90.75 -48.75 Z M 90.75 -48.75 L 90.75 -45 C 101.1 -45 109.5 -36.6 109.5 -26.32 C 109.5 -15.97 101.1 -7.57 90.75 -7.57 L 90.75 -3.82 C 103.2 -3.82 113.25 -13.88 113.25 -26.32 C 113.25 -38.7 103.2 -48.75 90.75 -48.75 Z M 90.75 -7.57 L 90.75 -11.32 C 82.58 -11.32 75.9 -18 75.9 -26.32 C 75.9 -34.5 82.58 -41.17 90.75 -41.17 L 90.75 -44.92 C 80.47 -44.92 72.15 -36.6 72.15 -26.32 C 72.15 -15.9 80.47 -7.57 90.75 -7.57 Z M 90.75 -41.17 L 90.75 -37.57 C 84.53 -37.57 79.5 -32.55 79.5 -26.25 C 79.5 -19.95 84.53 -14.92 90.75 -14.92 L 90.75 -11.32 C 99.07 -11.32 105.67 -18 105.67 -26.32 C 105.67 -34.5 99.07 -41.17 90.75 -41.17 Z M 90.75 -15.07 L 90.75 -18.68 C 86.63 -18.68 83.25 -22.05 83.25 -26.25 C 83.25 -30.45 86.63 -33.82 90.75 -33.82 L 90.75 -37.42 C 96.97 -37.42 101.92 -32.4 101.92 -26.32 C 101.92 -20.1 96.97 -15.07 90.75 -15.07 Z M 90.75 -22.57 L 90.75 -18.82 C 94.95 -18.82 98.25 -22.13 98.25 -26.25 C 98.25 -30.38 94.95 -33.75 90.75 -33.75 L 90.75 -30 C 92.85 -30 94.5 -28.27 94.5 -26.25 C 94.5 -24.22 92.85 -22.57 90.75 -22.57 Z M 119.25 -45 L 138.15 -45 C 144.68 -45 149.93 -39.75 149.93 -33.3 C 149.93 -28.95 147.68 -25.2 144.15 -23.1 L 137.78 -34.13 L 119.25 -34.13 L 119.25 -13.95 L 138.15 -13.95 C 138.97 -13.95 139.88 -14.03 140.63 -14.1 L 148.8 0 L 157.5 0 L 147.9 -16.57 C 153.6 -19.95 157.43 -26.18 157.43 -33.3 C 157.43 -43.95 148.88 -52.5 138.15 -52.5 L 119.25 -52.5 Z M 126.75 -21.45 L 126.75 -26.63 L 133.43 -26.63 L 136.43 -21.45 Z M 163.5 -45.6 L 163.5 -8.4 C 163.5 -3.52 167.03 0 171.9 0 L 194.03 0 C 198 0 200.93 -2.85 200.93 -6.75 C 200.93 -10.65 198 -13.5 194.03 -13.5 L 187.35 -13.5 C 183.38 -13.5 180.45 -10.57 180.45 -6.6 L 180.45 -6 C 180.45 -3 178.13 -1.5 175.05 -1.5 L 171.9 -1.5 C 167.93 -1.5 165 -4.42 165 -8.4 L 165 -11.55 C 165 -14.63 166.5 -16.95 169.5 -16.95 L 170.1 -16.95 C 174.07 -16.95 177 -19.88 177 -23.85 L 177 -45.6 C 177 -49.57 174.15 -52.5 170.25 -52.5 C 166.35 -52.5 163.5 -49.57 163.5 -45.6 Z M 206.93 -52.5 L 206.93 -22.5 L 218.18 -22.5 L 218.18 -11.25 L 206.93 -11.25 L 206.93 0 L 240.68 0 L 251.93 -11.25 L 251.93 -41.25 L 240.68 -52.5 L 240.68 -52.57 L 229.43 -52.57 L 229.43 -41.32 L 240.68 -41.32 L 240.68 -11.25 L 229.43 -11.25 L 229.43 -33.75 L 218.18 -33.75 L 218.18 -52.5 Z" stroke-linecap="round"/>
</g>
</g>
</g>
<g transform="matrix(-0.7576068226584723 0.8124338511201648 -0.8124338511201644 -0.7576068226584721 1407.3620279621805 314.4616313096608)" id="shape-9d11adc1-6de0-4492-bbef-73cdce7746b8">
<path style="stroke: none; stroke-width: 0; stroke-dasharray: none; stroke-linecap: butt; stroke-dashoffset: 0; stroke-linejoin: miter; stroke-miterlimit: 4; fill: rgb(88,241,173); fill-rule: nonzero; opacity: 1;" paint-order="stroke" transform=" translate(-204.85000000000002, -157.5)" d="M 294.1 145.5 C 288.70000000000005 145.5 284.1 149.1 282.6 154 L 221.70000000000002 154 L 221.70000000000002 139.4 L 185.40000000000003 139.4 L 185.40000000000003 154 L 127.10000000000004 154 C 125.60000000000004 149.1 121.00000000000004 145.5 115.60000000000004 145.5 C 109.00000000000004 145.5 103.60000000000004 150.9 103.60000000000004 157.5 C 103.60000000000004 164.1 109.00000000000004 169.5 115.60000000000004 169.5 C 121.00000000000004 169.5 125.60000000000004 165.9 127.10000000000004 161 L 185.40000000000003 161 L 185.40000000000003 175.6 L 221.70000000000005 175.6 L 221.70000000000005 161 L 282.6 161 C 284.1 165.9 288.70000000000005 169.5 294.1 169.5 C 300.70000000000005 169.5 306.1 164.1 306.1 157.5 C 306 150.8 300.7 145.5 294.1 145.5 z M 216.7 170.6 L 190.39999999999998 170.6 L 190.39999999999998 161 L 190.39999999999998 154 L 190.39999999999998 144.4 L 216.7 144.4 L 216.7 154 L 216.7 161 L 216.7 170.6 z" stroke-linecap="round"/>
</g>
<g transform="matrix(2.4129221083885364 0 0 2.4129221083885364 493.96860897804356 435.8953938079716)" id="tagline-eb95f9c0-c43b-4827-b1c7-3471f923be26-logo">
<g style="" paint-order="stroke">
		<g transform="matrix(1 0 0 1 0 0)" id="tagline-eb95f9c0-c43b-4827-b1c7-3471f923be26-logo-path-0">
<path style="stroke: none; stroke-width: 0; stroke-dasharray: none; stroke-linecap: butt; stroke-dashoffset: 0; stroke-linejoin: miter; stroke-miterlimit: 4; fill: rgb(88,241,173); fill-rule: nonzero; opacity: 1;" paint-order="stroke" transform=" translate(-19.894999999999996, 19.92)" d="M 37.62 -22.29 L 28.96 -25.14 C 28.21 -22.86 26.51 -21.32 25.48 -21.32 C 23.03 -21.32 21.43 -27.64 14.48 -27.64 C 10.03 -27.64 4.96 -24.4 2.17 -18.24 L 10.49 -14.48 C 11.69 -17.16 13.57 -18.53 14.48 -18.53 C 15.62 -18.53 19.32 -12.2 25.48 -12.2 C 30.78 -12.2 35.74 -16.47 37.62 -22.29 Z" stroke-linecap="round"/>
</g>
</g>
</g>
<g transform="matrix(2.4129221083885364 0 0 2.4129221083885364 1054.9612145821334 448.4969883312474)" id="tagline-2b0429a0-78c5-406f-a7e0-31561a7d0c3b-logo">
<g style="" paint-order="stroke">
		<g transform="matrix(1 0 0 1 0 0)" id="tagline-2b0429a0-78c5-406f-a7e0-31561a7d0c3b-logo-path-0">
<path style="stroke: none; stroke-width: 0; stroke-dasharray: none; stroke-linecap: butt; stroke-dashoffset: 0; stroke-linejoin: miter; stroke-miterlimit: 4; fill: rgb(88,241,173); fill-rule: nonzero; opacity: 1;" paint-order="stroke" transform=" translate(-50.33, 7.210000000000001)" d="M 2.45 -21.79 L 2.45 -21.79 Q 2.45 -22.09 2.79 -22.17 L 2.79 -22.17 Q 4.47 -22.54 6.27 -22.93 Q 8.08 -23.33 9.69 -23.96 L 9.69 -23.96 Q 9.75 -23.98 9.88 -23.98 L 9.88 -23.98 Q 10.16 -23.98 10.18 -23.76 L 10.18 -23.76 L 12.8 -9.32 Q 12.89 -9.58 13.14 -10.26 Q 13.38 -10.94 13.72 -11.88 Q 14.05 -12.83 14.46 -13.96 Q 14.87 -15.1 15.3 -16.29 Q 15.73 -17.47 16.15 -18.64 Q 16.56 -19.81 16.93 -20.82 Q 17.29 -21.83 17.56 -22.6 Q 17.83 -23.38 17.98 -23.76 L 17.98 -23.76 Q 18.07 -23.98 18.3 -23.98 L 18.3 -23.98 Q 18.37 -23.98 18.39 -23.97 Q 18.41 -23.96 18.48 -23.96 L 18.48 -23.96 Q 20.09 -23.33 21.79 -22.93 Q 23.48 -22.54 25.16 -22.17 L 25.16 -22.17 Q 25.57 -22.09 25.57 -21.7 L 25.57 -21.7 Q 25.57 -21.42 25.31 -20.84 L 25.31 -20.84 L 16.46 -0.84 L 11.73 9.8 Q 11.69 9.88 11.63 9.94 Q 11.58 9.99 11.45 9.99 L 11.45 9.99 Q 11.32 9.99 11.26 9.97 L 11.26 9.97 Q 10.48 9.69 9.8 9.5 Q 9.11 9.3 8.43 9.14 Q 7.76 8.98 7.05 8.84 Q 6.34 8.7 5.54 8.53 L 5.54 8.53 Q 5.33 8.49 5.21 8.39 Q 5.09 8.29 5.09 8.06 L 5.09 8.06 Q 5.09 7.99 5.17 7.75 Q 5.24 7.5 5.54 6.74 Q 5.84 5.97 6.47 4.52 Q 7.09 3.07 8.19 0.62 L 8.19 0.62 Q 7.86 -0.45 7.46 -1.96 Q 7.05 -3.46 6.58 -5.24 Q 6.12 -7.03 5.63 -9.01 Q 5.13 -11 4.63 -13.03 Q 4.13 -15.06 3.62 -17.05 Q 3.12 -19.04 2.64 -20.84 L 2.64 -20.84 Q 2.49 -21.18 2.47 -21.41 Q 2.45 -21.63 2.45 -21.79 Z M 26.66 -5.78 L 26.66 -5.78 Q 26.66 -6.4 26.68 -7.06 Q 26.71 -7.71 26.81 -8.4 L 26.81 -8.4 Q 27.05 -10.94 27.22 -12.75 Q 27.39 -14.57 27.5 -15.83 Q 27.61 -17.1 27.68 -17.91 Q 27.76 -18.71 27.81 -19.25 Q 27.87 -19.79 27.9 -20.14 Q 27.93 -20.5 27.97 -20.84 L 27.97 -20.84 Q 28.06 -21.53 28.13 -21.81 Q 28.21 -22.09 28.62 -22.17 L 28.62 -22.17 Q 29.63 -22.37 30.54 -22.53 Q 31.45 -22.69 32.34 -22.87 Q 33.24 -23.05 34.16 -23.27 Q 35.08 -23.48 36.12 -23.78 L 36.12 -23.78 Q 36.16 -23.78 36.2 -23.79 Q 36.24 -23.8 36.29 -23.8 L 36.29 -23.8 Q 36.54 -23.8 36.54 -23.63 L 36.54 -23.63 L 36.54 -23.59 Q 36.46 -22.86 36.39 -22.21 Q 36.33 -21.57 36.27 -20.89 Q 36.2 -20.22 36.13 -19.44 Q 36.05 -18.67 35.94 -17.65 Q 35.84 -16.63 35.69 -15.3 Q 35.54 -13.96 35.32 -12.2 L 35.32 -12.2 Q 35.19 -10.91 35.06 -9.64 Q 34.93 -8.36 34.93 -7.26 L 34.93 -7.26 Q 34.93 -6.66 35.02 -6.16 Q 35.11 -5.65 35.33 -5.3 Q 35.56 -4.94 35.92 -4.75 Q 36.29 -4.55 36.87 -4.55 L 36.87 -4.55 Q 37.32 -4.55 38.09 -4.76 Q 38.87 -4.96 39.64 -5.47 Q 40.41 -5.97 41 -6.8 Q 41.59 -7.63 41.68 -8.89 L 41.68 -8.89 Q 41.83 -11.02 41.95 -12.45 Q 42.07 -13.88 42.15 -14.86 Q 42.24 -15.83 42.3 -16.5 Q 42.37 -17.17 42.42 -17.78 Q 42.47 -18.39 42.52 -19.09 Q 42.56 -19.79 42.6 -20.84 L 42.6 -20.84 Q 42.67 -21.55 42.76 -21.82 Q 42.86 -22.09 43.25 -22.17 L 43.25 -22.17 Q 45.2 -22.56 47.24 -22.96 Q 49.29 -23.35 51.24 -23.98 L 51.24 -23.98 Q 51.41 -23.98 51.44 -23.92 Q 51.48 -23.87 51.48 -23.76 L 51.48 -23.76 L 49.46 -2.66 Q 49.39 -1.96 49.29 -1.69 Q 49.18 -1.42 48.81 -1.33 L 48.81 -1.33 Q 46.99 -0.82 45 -0.29 Q 43.01 0.24 41.14 1.1 L 41.14 1.1 Q 41.08 1.12 40.95 1.12 L 40.95 1.12 Q 40.78 1.12 40.75 1.03 Q 40.71 0.95 40.71 0.84 L 40.71 0.84 Q 40.71 0.79 40.72 0.69 Q 40.73 0.58 40.78 0.29 Q 40.82 0 40.9 -0.52 Q 40.97 -1.03 41.1 -1.89 L 41.1 -1.89 Q 38.69 -0.32 36.83 0.4 Q 34.98 1.12 33.54 1.12 L 33.54 1.12 Q 29.95 1.12 28.31 -0.61 Q 26.66 -2.34 26.66 -5.78 Z M 54.33 -5.99 L 54.33 -5.99 Q 54.33 -6.27 54.63 -6.27 L 54.63 -6.27 Q 54.83 -6.27 54.98 -6.12 L 54.98 -6.12 Q 55.84 -5.31 56.94 -4.79 Q 58.05 -4.28 59.34 -4.28 L 59.34 -4.28 Q 59.68 -4.28 60.13 -4.35 Q 60.59 -4.43 60.99 -4.6 Q 61.4 -4.77 61.67 -5.06 Q 61.94 -5.35 61.94 -5.78 L 61.94 -5.78 Q 61.94 -6.25 61.7 -6.65 Q 61.47 -7.05 61.08 -7.3 L 61.08 -7.3 Q 60.87 -7.46 60.33 -7.83 Q 59.79 -8.21 59.18 -8.64 Q 58.57 -9.07 58.02 -9.45 Q 57.47 -9.84 57.26 -10.01 L 57.26 -10.01 Q 56.29 -10.74 55.72 -11.49 Q 55.15 -12.25 54.85 -13.05 Q 54.55 -13.86 54.46 -14.74 Q 54.38 -15.62 54.38 -16.61 L 54.38 -16.61 Q 54.38 -18.11 55.17 -19.44 Q 55.97 -20.78 57.27 -21.79 Q 58.57 -22.79 60.22 -23.39 Q 61.88 -23.98 63.59 -23.98 L 63.59 -23.98 Q 65.01 -23.98 66.39 -23.55 Q 67.76 -23.12 68.94 -22.09 L 68.94 -22.09 Q 69.05 -20.73 69.09 -19.42 Q 69.14 -18.11 69.22 -16.67 L 69.22 -16.67 Q 69.22 -16.39 69.09 -16.3 Q 68.96 -16.2 68.79 -16.2 L 68.79 -16.2 Q 68.64 -16.2 68.54 -16.31 L 68.54 -16.31 Q 68.04 -16.78 67.53 -17.24 Q 67.01 -17.7 66.44 -18.06 Q 65.87 -18.41 65.23 -18.64 Q 64.58 -18.86 63.85 -18.86 L 63.85 -18.86 Q 63.4 -18.86 62.95 -18.79 Q 62.5 -18.71 62.13 -18.51 Q 61.77 -18.3 61.54 -17.96 Q 61.32 -17.62 61.32 -17.08 L 61.32 -17.08 Q 61.32 -16.46 61.47 -16.01 Q 61.62 -15.55 62.18 -15.13 L 62.18 -15.13 L 66.17 -12.42 Q 67.27 -11.67 67.94 -10.95 Q 68.62 -10.23 69.01 -9.52 Q 69.39 -8.81 69.53 -8.11 Q 69.67 -7.41 69.67 -6.72 L 69.67 -6.72 Q 69.67 -4.79 68.78 -3.32 Q 67.89 -1.85 66.47 -0.87 Q 65.05 0.11 63.26 0.61 Q 61.47 1.12 59.66 1.12 L 59.66 1.12 Q 58.29 1.12 57.01 0.83 Q 55.73 0.54 54.63 -0.06 L 54.63 -0.06 L 54.36 -5.93 Q 54.36 -5.95 54.34 -5.96 Q 54.33 -5.97 54.33 -5.99 Z M 72.32 -10.72 L 72.32 -10.72 Q 72.32 -13.02 73.07 -15.09 Q 73.82 -17.17 75.17 -18.81 Q 76.53 -20.45 78.42 -21.56 Q 80.31 -22.67 82.59 -23.05 L 82.59 -23.05 Q 82.93 -23.07 82.93 -23.2 L 82.93 -23.2 Q 82.93 -23.44 82.88 -23.64 Q 82.82 -23.85 82.82 -24 L 82.82 -24 Q 82.82 -24.23 82.91 -24.32 Q 82.99 -24.41 83.1 -24.41 L 83.1 -24.41 Q 87.21 -24.41 90.08 -23.47 Q 92.96 -22.54 94.77 -20.93 Q 96.57 -19.31 97.39 -17.12 Q 98.21 -14.93 98.21 -12.42 L 98.21 -12.42 Q 98.21 -9.22 97.13 -6.7 Q 96.06 -4.19 94.2 -2.45 Q 92.34 -0.71 89.86 0.2 Q 87.38 1.12 84.56 1.12 L 84.56 1.12 Q 81.53 1.12 79.25 0.13 Q 76.96 -0.86 75.41 -2.5 Q 73.86 -4.15 73.09 -6.28 Q 72.32 -8.42 72.32 -10.72 Z M 80.59 -10.96 L 80.59 -10.96 Q 80.59 -9.8 80.83 -8.66 Q 81.08 -7.52 81.65 -6.6 Q 82.22 -5.67 83.14 -5.1 Q 84.07 -4.53 85.44 -4.53 L 85.44 -4.53 Q 86.43 -4.58 87.17 -4.97 Q 87.91 -5.37 88.45 -6 Q 88.99 -6.64 89.34 -7.43 Q 89.7 -8.23 89.9 -9.08 Q 90.11 -9.93 90.19 -10.74 Q 90.28 -11.56 90.28 -12.22 L 90.28 -12.22 Q 90.28 -13.34 89.94 -14.42 Q 89.61 -15.49 88.97 -16.31 Q 88.32 -17.12 87.37 -17.63 Q 86.41 -18.13 85.16 -18.13 L 85.16 -18.13 Q 83.88 -18.13 82.99 -17.37 Q 82.11 -16.61 81.59 -15.49 Q 81.06 -14.37 80.82 -13.14 Q 80.59 -11.9 80.59 -10.96 Z" stroke-linecap="round"/>
</g>
</g>
</g>
</svg>